<svg id="Слой_1" data-name="Слой 1" xmlns="http://www.w3.org/2000/svg" viewBox="0 0 728.6 146.4"><title>alfabank</title><polygon points="703.61 28.91 678.75 56.77 678.75 28.91 660.76 28.91 660.76 99.25 678.75 99.25 678.75 69.64 705.36 99.25 728.6 99.25 695.87 62.4 726.23 28.91 703.61 28.91" style="fill:#fff"/><polygon points="629.04 55.15 604.18 55.15 604.18 28.91 586.18 28.91 586.18 99.25 604.18 99.25 604.18 71.52 629.04 71.52 629.04 99.25 647.03 99.25 647.03 28.91 629.04 28.91 629.04 55.15" style="fill:#fff"/><path d="M106.82,67c-0.43,13.11-2.12,15.74-9.5,15.74V99.25h2.75c18.39,0,22.81-9.5,23.49-30.61l0.75-23.36h17.24v54h18V28.92H108.07Z" transform="translate(0 0)" style="fill:#fff"/><path d="M204.26,50.28h-13V28.92h-18V99.25h31.23c19.62,0,26.61-12.74,26.61-24.74,0-15.49-9.74-24.24-26.86-24.24m-1.37,33.48H191.26V65.9h11.62c6.25,0,10,2.75,10,8.62,0,6.37-3.62,9.25-10,9.25" transform="translate(0 0)" style="fill:#fff"/><path d="M289.71,27.29V1.18h-18V27.29C251.11,29,237.24,43.66,237.24,64s13.87,35.11,34.48,36.86v26.49h18V100.88c20.61-1.62,34.48-16.37,34.48-36.86s-13.87-35.11-34.48-36.73m-18,56.6c-10-1.37-16.24-8.87-16.24-19.87s6.25-18.49,16.24-19.86V83.89Zm18,0V44.16C299.71,45.53,306,53,306,64s-6.25,18.49-16.24,19.87" transform="translate(0 0)" style="fill:#fff"/><path d="M391.66,77.64V54c0-17.24-11-28.11-29.48-28.11-19.12,0-29.24,11.49-30.11,23.49h18.24c0.63-2.62,3.37-7.12,11.87-7.12,7,0,11.49,3.25,11.49,11.74H355.8c-16,0-25.49,8.37-25.49,22.36C330.32,91,340.7,101,355.68,101c11,0,17.08-5.19,19.74-9.12,2.37,4.75,7.62,7.37,14.49,7.37h6.25V83c-3.25,0-4.5-1.5-4.5-5.37m-18-4.62c0,8.12-5.75,12.74-13.24,12.74-6.5,0-11.62-2.37-11.62-9.37s5.62-8,10.49-8h14.37V73Z" transform="translate(0 0)" style="fill:#fff"/><path d="M468.75,38.91H448.63V19h46.6V1.18H429.77V99.25h39c21.61,0,34-10.74,34-30.49,0-18.61-12.37-29.86-34-29.86m-0.87,42.6H448.63V56h19.24c10,0,15.62,4.62,15.62,12.74,0,8.37-5.62,12.74-15.62,12.74" transform="translate(0 0)" style="fill:#fff"/><path d="M571.57,77.64V54c0-17.24-11-28.11-29.48-28.11C523,25.92,512.85,37.41,512,49.4h18.24c0.63-2.62,3.38-7.12,11.87-7.12,7,0,11.49,3.25,11.49,11.74H535.71c-16,0-25.49,8.37-25.49,22.36C510.22,91,520.61,101,535.59,101c11,0,17.08-5.19,19.74-9.12,2.37,4.75,7.62,7.37,14.49,7.37h6.25V83c-3.25,0-4.5-1.5-4.5-5.37m-18-4.62c0,8.12-5.75,12.74-13.24,12.74-6.49,0-11.62-2.37-11.62-9.37s5.62-8,10.49-8h14.37V73Z" transform="translate(0 0)" style="fill:#fff"/><rect y="126.41" width="96.2" height="19.99" style="fill:#fff"/><path d="M65.59,14.64C62.84,6.46,59.68,0,48.85,0S34.65,6.44,31.77,14.64L2,99.25H21.74l6.87-20.11h38L73,99.25H94ZM34.36,62.15L47.85,22h0.5l12.74,40.1H34.36Z" transform="translate(0 0)" style="fill:#fff"/></svg>