<svg id="Слой_1" data-name="Слой 1" xmlns="http://www.w3.org/2000/svg" viewBox="0 0 266.14 80.41"><title>arca</title><path d="M229.06,343l0.54-2.5a5,5,0,0,1-2.06-.54,5.89,5.89,0,0,1-1.77-1.41,3.07,3.07,0,0,1-.83-1.84l-5-63.36a5.55,5.55,0,0,0-1-2.86,5.33,5.33,0,0,0-2.13-1.75,6.85,6.85,0,0,0-2.86-.6H181.65l-0.65,2.5a2.73,2.73,0,0,1,1.52.51,4.19,4.19,0,0,1,1.23,1.23,2.87,2.87,0,0,1,.51,1.52,4.71,4.71,0,0,1-.07.94,3.14,3.14,0,0,1-.25.69L152,337.34a7,7,0,0,0-.4,1.07,4.35,4.35,0,0,0-.14,1,3.23,3.23,0,0,0,1.23,2.57,5.21,5.21,0,0,0,3.33,1h23.54l0.54-2.5a3.46,3.46,0,0,1-1.46-.33,3.16,3.16,0,0,1-1.12-.87,2,2,0,0,1-.45-1.19,4.68,4.68,0,0,1,0-.62,2.27,2.27,0,0,1,.18-0.79l4.45-8.9h12.58l1,11.06a4.11,4.11,0,0,0,1.57,3.24,7.4,7.4,0,0,0,4.18.89h28ZM193.48,301.1l0.87,12.15h-6.18l5.32-12.15h0Z" transform="translate(-149.1 -265.72)" style="fill:#575d9b;stroke:#fff;stroke-linecap:round;stroke-linejoin:round;stroke-width:4.800322532653809px"/><path d="M267,306.09a3.87,3.87,0,0,1,1.77-2.59,7.82,7.82,0,0,1,4.2-.89h4.66a12.13,12.13,0,0,0,5.93-1.28,7.31,7.31,0,0,0,3.4-4.14l3.15-13.45h-9.44a9.06,9.06,0,0,0-3.51.6,7.39,7.39,0,0,0-2.48,1.7,17.66,17.66,0,0,0-2,2.64l-2.11,3.42h-1.3a20.3,20.3,0,0,0,.49-2.1,9.55,9.55,0,0,0,.16-1.59,3.58,3.58,0,0,0-1.23-2.95,6.37,6.37,0,0,0-4.09-1.07H240.53l-0.54,2.5a2.75,2.75,0,0,1,1.37.41,3.26,3.26,0,0,1,1.16,1.12,3.2,3.2,0,0,1,.51,1.72c0,0.31,0,.63,0,0.94a6.81,6.81,0,0,1-.2,1l-10.63,45.67c-0.11.49-.18,0.94-0.24,1.34a7.91,7.91,0,0,0-.09.94,2.78,2.78,0,0,0,1,2.08,3.83,3.83,0,0,0,2.51.85h27.12l0.65-2.5a2.37,2.37,0,0,1-1.41-.49,3.76,3.76,0,0,1-1.16-1.23,3.27,3.27,0,0,1-.47-1.65c0-.33,0-0.63,0-0.9a4.28,4.28,0,0,1,.09-0.83L267,306.09h0Z" transform="translate(-149.1 -265.72)" style="fill:#575d9b;stroke:#fff;stroke-linecap:round;stroke-linejoin:round;stroke-width:4.800322532653809px"/><path d="M320.34,325.08c-2.28,0-3.83-.58-4.68-1.7s-1-2.73-.52-4.81l6-25.71a13.44,13.44,0,0,1,1.27-3.89,6.2,6.2,0,0,1,2.49-2.57,8.89,8.89,0,0,1,4.38-.92h11.17a9.48,9.48,0,0,0,4.27-.8,5.35,5.35,0,0,0,2.31-2.21,13.57,13.57,0,0,0,1.23-3.4c0.25-1,.54-2.12.87-3.45s0.6-2.66.89-4,0.49-2.51.63-3.51H313.73a20.68,20.68,0,0,0-13.63,5,24.48,24.48,0,0,0-5.3,6.49,33.63,33.63,0,0,0-3.53,9.29l-6,26.14a67,67,0,0,0-1.57,9.15,25.55,25.55,0,0,0,.29,7.7,12.42,12.42,0,0,0,2.91,5.89,13.94,13.94,0,0,0,6.25,3.8A34.37,34.37,0,0,0,303.53,343h24.41a18.28,18.28,0,0,0,6.28-.87,7.09,7.09,0,0,0,3.43-2.42,9.52,9.52,0,0,0,1.57-3.76l3.15-13.67h-2.5a3,3,0,0,1-1.21,1.5,7.48,7.48,0,0,1-2.1,1,8.29,8.29,0,0,1-2.22.34h-14Z" transform="translate(-149.1 -265.72)" style="fill:#575d9b;stroke:#fff;stroke-linecap:round;stroke-linejoin:round;stroke-width:4.800322532653809px"/><path d="M373.89,321.28A9.53,9.53,0,0,1,375,318.1a3.61,3.61,0,0,1,1.56-1.46,4.66,4.66,0,0,1,1.86-.34h2.5l-2.28,9.87a3.92,3.92,0,0,1-1,2,2.72,2.72,0,0,1-1.92.8H375a2.32,2.32,0,0,1-1.65-.47,2,2,0,0,1-.52-1.59,5.38,5.38,0,0,1,.07-0.85c0-.33.09-0.67,0.14-1l0.87-3.8h0Zm28-36.88h-37l-2.28,9.22a6,6,0,0,0-.24,1.08,7.71,7.71,0,0,0-.09,1.08,3.36,3.36,0,0,0,1.12,2.87,6.22,6.22,0,0,0,3.87.92H381.7a2.67,2.67,0,0,1,2.17.72,3,3,0,0,1,.22,2.53,3.2,3.2,0,0,1-1.27,2,4.06,4.06,0,0,1-2.31.61H366.19a18.79,18.79,0,0,0-8.62,1.79,16,16,0,0,0-6.4,6,36.51,36.51,0,0,0-4.28,11.26c-0.14.85-.29,1.74-0.45,2.68s-0.27,1.83-.36,2.67a18.33,18.33,0,0,0-.16,2.24,15.16,15.16,0,0,0,1.41,7.11,7.52,7.52,0,0,0,3.91,3.54,15.81,15.81,0,0,0,6,1h4.45a32.4,32.4,0,0,0,5.41-.36,10.9,10.9,0,0,0,3.71-1.27,10,10,0,0,0,2.73-2.4,29.22,29.22,0,0,0,2.48-3.78h1.3l-0.33,1.41a6,6,0,0,0,0,2.77,3.43,3.43,0,0,0,1.52,2.06,6.57,6.57,0,0,0,3.51.81h24.52l0.54-2.5a6,6,0,0,1-1.45-.18,2.91,2.91,0,0,1-1.34-.76,2.17,2.17,0,0,1-.58-1.56,6.61,6.61,0,0,1,.09-1.1c0.05-.34.13-0.76,0.24-1.28l8.35-36c0.11-.45.2-1,0.29-1.61s0.14-1.23.18-1.84,0.07-1.12.07-1.54a10.59,10.59,0,0,0-1.45-5.59,8.92,8.92,0,0,0-3.87-3.43,13,13,0,0,0-5.64-1.18h0Z" transform="translate(-149.1 -265.72)" style="fill:#575d9b;stroke:#fff;stroke-linecap:round;stroke-linejoin:round;stroke-width:4.800322532653809px"/></svg>