<?xml version="1.0" encoding="utf-8"?>
<!-- Generator: Adobe Illustrator 16.0.0, SVG Export Plug-In . SVG Version: 6.00 Build 0)  -->
<!DOCTYPE svg PUBLIC "-//W3C//DTD SVG 1.1//EN" "http://www.w3.org/Graphics/SVG/1.1/DTD/svg11.dtd">
<svg version="1.1" id="Layer_1" xmlns="http://www.w3.org/2000/svg" xmlns:xlink="http://www.w3.org/1999/xlink" x="0px" y="0px"
	 width="60px" height="35px" viewBox="0 0 60 35" enable-background="new 0 0 60 35" xml:space="preserve">
<g>
	<path fill="#FFFFFF" d="M16.247,28.207l-0.098,0.096c-1.537,1.566-3.318,2.396-5.152,2.396c-3.83,0-6.608-2.874-6.608-6.838
		c0-3.959,2.778-6.834,6.608-6.834c1.834,0,3.615,0.831,5.152,2.405l0.098,0.094l2.464-2.979l-0.066-0.08
		c-2.047-2.42-4.507-3.598-7.528-3.598c-3.03,0-5.805,1.021-7.799,2.859C1.143,17.722,0,20.532,0,23.859
		c0,3.33,1.143,6.146,3.317,8.137c1.994,1.852,4.769,2.865,7.799,2.865c3.021,0,5.481-1.18,7.528-3.602l0.066-0.072L16.247,28.207z"
		/>
	<rect x="21.196" y="13.215" fill="#FFFFFF" width="4.352" height="21.241"/>
	<path fill="#FFFFFF" d="M42.592,29.839c-1.16,0.706-2.24,1.063-3.213,1.063c-1.406,0-2.043-0.743-2.043-2.397V17.233h4.435v-4
		h-4.435V6.625L33.074,8.91v4.324h-3.679v4h3.679v11.991c0,3.262,1.936,5.498,4.825,5.558c1.961,0.038,3.144-0.546,3.858-0.976
		l0.047-0.031l1.045-4.092L42.592,29.839z"/>
	<rect x="46.193" y="13.215" fill="#FFFFFF" width="4.357" height="21.241"/>
	<path fill="#EB2227" d="M53.088,9.49c-3.975-5.631-10.575-8.989-17.293-8.989c-6.713,0-13.316,3.358-17.285,8.989l-0.203,0.29
		h5.005l0.057-0.06c3.404-3.517,7.854-5.375,12.427-5.375c4.572,0,9.02,1.858,12.433,5.375l0.058,0.06h5.002L53.088,9.49z"/>
	<path fill="#FFFFFF" d="M58.875,8.567c0,1.087-0.828,1.915-1.916,1.915c-1.084,0-1.916-0.827-1.916-1.915s0.832-1.916,1.916-1.916
		C58.047,6.651,58.875,7.479,58.875,8.567 M59.244,8.567c0-1.296-0.986-2.283-2.283-2.283s-2.282,0.987-2.282,2.283
		s0.985,2.282,2.282,2.282C58.257,10.849,59.244,9.863,59.244,8.567 M58.004,8.029c0-0.517-0.373-0.753-0.815-0.753h-1.093v2.491
		h0.422v-0.96h0.48l0.486,0.96h0.499l-0.51-1.004C57.795,8.668,58.004,8.42,58.004,8.029 M57.574,8.042
		c0,0.247-0.171,0.355-0.398,0.355h-0.657V7.688h0.657C57.403,7.688,57.574,7.81,57.574,8.042"/>
</g>
</svg>
