<svg id="Layer_1" data-name="Layer 1" xmlns="http://www.w3.org/2000/svg" viewBox="0 0 141.73 30.94"><title>gazprombank</title><ellipse cx="14.96" cy="15.47" rx="14.7" ry="15.2" style="fill:#fff"/><path d="M227.29,398.14a14.45,14.45,0,1,1,14.45,14.94A14.72,14.72,0,0,1,227.29,398.14Zm-0.52,0a15,15,0,1,0,15-15.47A15.24,15.24,0,0,0,226.77,398.14Z" transform="translate(-226.77 -382.67)" style="fill:#4a5b78;fill-rule:evenodd"/><path d="M251.25,396.57l-0.37.3a11.41,11.41,0,0,1-3.94,1.68c-3.76,1-6.48,1.2-9.59,2a12.69,12.69,0,0,0-1.82.61c0.59,0.3,1.21.58,1.85,0.83a26.57,26.57,0,0,1,3.69-.86c0.69-.12,2.83-0.51,4.39-0.85,2.79-.61,6.88-2,5.79-3.7h0Zm-1.8-3.63a14.07,14.07,0,0,0-2.13-.77A4.88,4.88,0,0,1,246,393a21.7,21.7,0,0,1,2.55.71h0a2.26,2.26,0,0,0,.93-0.73h0Zm-13.69,3.86c3.65-1.11,7.48-1.45,11.36-2.52a8.54,8.54,0,0,0-3.95-.41,42.52,42.52,0,0,0-7.08,1.48c-0.86.26-5.38,1.59-4.08,3.44h0s0.78-1.1,3.74-2h0Zm-2.52,6.37a1.37,1.37,0,0,0,.64,1,1.54,1.54,0,0,1,.27-0.5h0c-0.31-.16-0.61-0.34-0.91-0.52h0ZM235,403a6.7,6.7,0,0,1,1-.49q-0.78-.33-1.59-0.72a3.71,3.71,0,0,0-.64.5h0c0.41,0.25.82,0.49,1.25,0.72h0Zm14-8a19,19,0,0,1-3.31,1.11c-1.24.32-4.26,0.77-7.51,1.5-1,.23-3.81.91-5.18,2.11a5.94,5.94,0,0,0,1,.64,8.59,8.59,0,0,1,2.48-1,44.91,44.91,0,0,1,5.27-1.08,47,47,0,0,0,7-1.7,5.9,5.9,0,0,0,1.58-.85A5.4,5.4,0,0,0,249,395h0Zm1.08-.68a7.15,7.15,0,0,1,1,.55,0.85,0.85,0,0,0-.39-1.16h0a4.42,4.42,0,0,1-.62.61h0Zm-17,6.82c-0.32-.19-0.55-0.32-0.82-0.52a0.75,0.75,0,0,0,.42.87h0c0.12-.13.27-0.23,0.4-0.35h0Zm15.54-10.42a2.19,2.19,0,0,1-.52.76,16.77,16.77,0,0,1,1.63.56,2.38,2.38,0,0,0-1.12-1.32h0Zm-17.18,3.22c3.82-2.59,8.05-4.1,15.22-2.82a1.29,1.29,0,0,0,.72-0.95,16.52,16.52,0,0,0-6.24-.86,20.88,20.88,0,0,0-8.49,2.25l0.66-.85a21.16,21.16,0,0,1,8.43-2.2,16.18,16.18,0,0,1,5.65.77,2.84,2.84,0,0,0-1.48-1c-2.4-1.12-6.89-1.22-10.57.45a11.23,11.23,0,0,1,1.52-.89,13.09,13.09,0,0,1,5.68-1.09,8.57,8.57,0,0,1,5.78,2.23,2.2,2.2,0,0,1,.44.85,5,5,0,0,1,2.18,1.82,1.93,1.93,0,0,1,.15,1.12,3,3,0,0,1,.93.86,2.13,2.13,0,0,1,.33.86,1.53,1.53,0,0,1-.29,1.27,1.74,1.74,0,0,1,.75,1,2.76,2.76,0,0,1-1.11,2.43,11.79,11.79,0,0,1-4.2,2.06c-3,.78-5.64,1.11-7.75,1.51a16.34,16.34,0,0,0,4.32.55,19.64,19.64,0,0,0,8.42-2.19s-0.09.29-.18,0.54a19.57,19.57,0,0,1-9.28,2.44,19.86,19.86,0,0,1-5.22-.91,9.48,9.48,0,0,0-1.45.51,16.56,16.56,0,0,0,6.41,1.57,23.14,23.14,0,0,0,8.68-1.49c-0.14.14-.21,0.36-0.35,0.5a19.53,19.53,0,0,1-6.4,1.73,23.66,23.66,0,0,1-5.31-.33,17.47,17.47,0,0,1-3.95-1.35,1,1,0,0,0-.39.65c4.92,2.66,9.54,2.72,14.79,1l-0.48.48a15.67,15.67,0,0,1-13.79-.26,3.12,3.12,0,0,1-.35-0.18,9.75,9.75,0,0,0,6,2.85,14.6,14.6,0,0,0,6.06-.81l-0.87.47a10.24,10.24,0,0,1-5.31,1,10.07,10.07,0,0,1-6.47-2.73,2.63,2.63,0,0,1-.74-1.43,4.23,4.23,0,0,1-1.73-1.56,2.08,2.08,0,0,1,0-1.56,3.4,3.4,0,0,1-.95-0.91,1.62,1.62,0,0,1,.11-1.66,2.55,2.55,0,0,1-.5-0.75,2.34,2.34,0,0,1-.08-0.91,2.93,2.93,0,0,1,.72-1.5,8.8,8.8,0,0,1,4.1-2.37,36,36,0,0,1,4.43-1.18,54.08,54.08,0,0,0,5.78-1.22,19,19,0,0,0-14.55,3Z" transform="translate(-226.77 -382.67)" style="fill:#4a5b78;fill-rule:evenodd"/><path d="M275.54,395.45l0.57,4.13H275ZM271,404.9h3.09l0.37-2.34h2.12L277,404.9h3.08l-2.61-13.54h-3.82Z" transform="translate(-226.77 -382.67)" style="fill:#4a5b78"/><path d="M283,396.6a1.36,1.36,0,0,0,1.4-1.33A1.22,1.22,0,0,0,283,394a4,4,0,0,0-1.67.38l0-2.93a9.43,9.43,0,0,1,2.65-.35,3.41,3.41,0,0,1,3.6,3.55,3.3,3.3,0,0,1-1.88,3.15V398a3.14,3.14,0,0,1,2.08,3.25,3.72,3.72,0,0,1-3.93,4,5.23,5.23,0,0,1-2.88-.7l0.05-2.81a4.39,4.39,0,0,0,2,.41,1.29,1.29,0,0,0,1.37-1.29,1.26,1.26,0,0,0-1.5-1.27h-1.24v-2.9H283Z" transform="translate(-226.77 -382.67)" style="fill:#4a5b78"/><polygon points="62.43 8.69 70.72 8.69 70.72 22.23 67.69 22.23 67.69 11.94 65.47 11.94 65.47 22.23 62.43 22.23 62.43 8.69" style="fill:#4a5b78"/><path d="M302.27,394.34H303c0.69,0,1.12.43,1.12,1.55,0,1.47-.73,1.57-1.12,1.57h-0.72v-3.12Zm-3,10.56h3v-4.47h1c3,0,3.94-2.79,3.94-4.57s-1.06-4.51-3.94-4.5h-4.06V404.9Z" transform="translate(-226.77 -382.67)" style="fill:#4a5b78"/><path d="M312.85,401.79c-1.07,0-1.62-1.29-1.62-3.68s0.55-3.68,1.62-3.68,1.63,1.29,1.63,3.68S313.93,401.79,312.85,401.79Zm0,3.27c3.6,0,4.82-3.47,4.82-7s-1.22-7-4.82-7-4.82,3.48-4.82,7S309.25,405.06,312.85,405.06Z" transform="translate(-226.77 -382.67)" style="fill:#4a5b78"/><path d="M333.88,402.19v-3.08h0.44a1.2,1.2,0,0,1,1.32,1.41,1.42,1.42,0,0,1-1.32,1.67h-0.44Zm-3,2.71h3.63c0.78,0,4.07-.34,4.08-4.44,0-3.46-2.55-4.06-4.19-4.06h-0.54V394.6h4v-3.25h-7V404.9Z" transform="translate(-226.77 -382.67)" style="fill:#4a5b78"/><polygon points="122.78 8.69 125.76 8.69 125.76 13.56 127.88 13.56 127.88 8.69 130.86 8.69 130.86 22.23 127.88 22.23 127.88 16.81 125.76 16.81 125.76 22.23 122.78 22.23 122.78 8.69" style="fill:#4a5b78"/><polygon points="132.85 8.69 135.83 8.69 135.82 13.56 136.47 13.56 138.17 8.69 141.41 8.69 139.09 15.11 141.73 22.23 138.23 22.23 136.53 16.78 135.82 16.78 135.83 22.23 132.85 22.23 132.85 8.69" style="fill:#4a5b78"/><polygon points="38.37 8.69 44.6 8.69 44.6 12.06 41.46 12.06 41.46 22.23 38.37 22.23 38.37 8.69" style="fill:#4a5b78"/><polygon points="92.36 8.69 94.94 8.69 97.22 11.88 99.51 8.69 102.09 8.69 102.09 22.23 99.05 22.23 99.05 13.97 97.22 16.34 95.4 13.97 95.4 22.23 92.36 22.23 92.36 8.69" style="fill:#4a5b78"/><path d="M343.73,395.47l0.57,4.13h-1.15Zm-4.52,9.45h3.08l0.37-2.34h2.13l0.37,2.34h3.08l-2.61-13.54h-3.82Z" transform="translate(-226.77 -382.67)" style="fill:#4a5b78"/></svg>