<svg id="Слой_1" data-name="Слой 1" xmlns="http://www.w3.org/2000/svg" viewBox="0 0 260.48 186.91"><title>kazcom</title><polygon id="_220099472" data-name=" 220099472" points="179.59 17.81 179.59 2.25 257.9 2.25 257.9 15.74 204.54 72.71 260.4 72.71 260.4 88.31 179.59 88.31 179.59 74.96 233.24 17.81 179.59 17.81" style="fill:#fefefe"/><polygon id="_220099424" data-name=" 220099424" points="218.74 160.04 192.91 125 192.91 184.65 176.86 184.65 176.86 98.57 192.1 98.57 218.97 135.16 245.83 98.57 260.48 98.57 260.48 184.65 244.36 184.65 244.36 125.36 218.74 160.04" style="fill:#fefefe"/><polygon id="_220099616" data-name=" 220099616" points="83.83 88.31 58.81 88.31 17.44 50.33 17.44 88.31 0 88.31 0 2.25 17.44 2.25 17.44 40.1 59.69 2.25 83.98 2.25 35.7 45.08 83.83 88.31" style="fill:#fefefe"/><polygon id="_220099304" data-name=" 220099304" points="83.83 184.67 58.81 184.67 17.44 146.7 17.44 184.67 0 184.67 0 98.6 17.44 98.6 17.44 136.45 59.69 98.6 83.98 98.6 35.7 141.44 83.83 184.67" style="fill:#fefefe"/><path id="_220099400" data-name=" 220099400" d="M143.3,208.9c24.51,0,45.93-18,45.93-45.29s-21.42-45.27-45.93-45.27-45.93,18-45.93,45.27S118.72,208.9,143.3,208.9Zm0-15.55c-16.49,0-28.7-13.24-28.7-29.73s12.22-29.71,28.7-29.71S172,147.12,172,163.61,159.79,193.34,143.3,193.34Z" transform="translate(-19.8 -21.99)" style="fill:#fbba18"/><path id="_220101920" data-name=" 220101920" d="M170.09,101.5v8.8h17.07V24.23H170.09V33c-6.33-6.31-16.71-11-29.44-11a42.81,42.81,0,0,0-30.4,12.59c-8.46,8.49-12.88,20.36-12.88,32.68s4.41,24.19,12.88,32.66a42.83,42.83,0,0,0,30.4,12.61c12.73,0,23.11-4.7,29.44-11h0Zm0.81-34.24C170.9,85.11,158.69,97,142.79,97c-16.41,0-28.19-12.8-28.19-29.76S126,37.48,142.79,37.48C158.83,37.48,170.9,49.34,170.9,67.26Z" transform="translate(-19.8 -21.99)" style="fill:#fefefe"/></svg>