<svg id="Слой_1" data-name="Слой 1" xmlns="http://www.w3.org/2000/svg" viewBox="0 0 224 59"><title>open</title><g fill="none"><path d="M58.9 58.4h-3.4v-10h5.9v1h-4.7v3.2h2.2c2 0 3.3.8 3.3 2.8v.1c0 1.9-1.3 2.9-3.3 2.9zm0-.9c1.5 0 2.1-.7 2.1-1.9v-.1c0-1.2-.7-1.9-2.2-1.9h-2.1v3.9h2.2zm4.4-1.1c0-1.7 1.8-2.3 3.7-2.3h1.1v-.5c0-1.2-.4-1.7-1.6-1.7-1 0-1.6.4-1.7 1.3h-1.2c.2-1.7 1.5-2.3 2.9-2.3s2.7.6 2.7 2.6v4.8H68v-.9c-.5.7-1.2 1.1-2.3 1.1-1.3 0-2.4-.6-2.4-2.1zm4.8-.5V55h-1c-1.5 0-2.5.4-2.5 1.4 0 .8.4 1.2 1.4 1.2 1.1 0 2.1-.6 2.1-1.7zm7.8-.7h-3.6v3.3h-1.2v-7.3h1.2v3.1h3.6v-3.1h1.2v7.3h-1.2zm4.4-.5v3.7h-1.2v-7.3h1.2v3.4l3-3.4h1.4l-3.1 3.4 3.4 3.9h-1.4z" fill="#FFF"></path><path fill="#00BEF0" d="M21.8.5C9.8.5.1 10.2.1 22.2s9.7 21.7 21.7 21.7 21.7-9.7 21.7-21.7C43.4 10.2 33.7.5 21.8.5zm-3.1 30.9l-1.6 4.7c-6-2-10-7.7-10-14.1 0-6.4 4-12 10.1-14.1l1.6 4.7c-4 1.3-6.6 5.1-6.6 9.3-.1 4.5 2.5 8.2 6.5 9.5zm7.4 4.9l-1.5-4.8c4.1-1.3 6.8-5.1 6.8-9.4 0-4.3-2.7-8-6.7-9.3L26.3 8c6.1 2 10.2 7.7 10.2 14.1 0 6.5-4.2 12.2-10.4 14.2z"></path><path fill="#FFF" d="M220.4 26.1l2.4 2.9c-2.5 2.6-5.6 3.3-8.1 3.3-2.4 0-4.1-.4-5.6-1.1-3.2-1.6-4.8-4.8-4.8-8.7 0-5.9 4-10.3 9.9-10.3 6.6 0 9.8 4.9 9.3 11.3h-15c.1 1.6 1 3.1 2.3 3.9 1.1.7 2.4 1 4.1 1 1.9 0 3.8-.6 5.5-2.3zM208.7 20h10.6c-.3-2.3-2.2-4.3-5.2-4.3-3.2.1-5.1 2.2-5.4 4.3zM107.9 31.8h5.4l-8.5-9.9 8.4-9.3h-5.3l-6.4 7.4h-1.9v-7.4h-4.1v19.1h4.1v-7.6h1.9l6.4 7.7zm17.7-15.7c-3.5 0-5.8 2.7-5.8 6.1 0 3.4 2.3 6.1 5.8 6.1s5.7-2.6 5.7-6.1c0-3.4-2.1-6.1-5.7-6.1zm.7-3.9c5.4 0 9.4 4.2 9.4 10 0 5.7-3.9 10.1-9.4 10.1-2.6 0-4.7-.9-6.2-2.5v10h-4.2V12.6h4.1v2.3c1.6-1.9 3.6-2.7 6.3-2.7zm54.4.4h-17.1v3.8h6.5v15.3h4.2V16.5h6.5v-3.9h-.1zm-88.1 0H75.5v3.8H82v15.3h4.2V16.5h6.5v-3.9h-.1zm-22.2 9.6c0-3.6-2.5-6.2-6-6.2-3.4 0-6 2.6-6 6.2s2.5 6.2 6 6.2c3.4 0 6-2.6 6-6.2zm-16.2 0c0-5.7 4.4-10 10.3-10 5.8 0 10.3 4.3 10.3 10s-4.4 10.1-10.3 10.1-10.3-4.4-10.3-10.1zM201 12.6v19.1h-4.1V19.4l-10 12.3h-3.3V12.6h4.1V25l10-12.3h3.3v-.1zm-40.2 19.2h-4.1V12.6h4.1v19.2zm-10.7-6.6c0-1.7-1.2-2.9-2.8-2.9h-4.2v5.9h4.2c1.6 0 2.8-1.2 2.8-3zm4.2 0c0 3.8-2.8 6.5-6.8 6.5H139V12.6h4.1v6.2h4.7c4 0 6.5 2.6 6.5 6.4z"></path></g></svg>