<svg id="Слой_1" data-name="Слой 1" xmlns="http://www.w3.org/2000/svg" viewBox="0 0 938.34 286.52"><title>psb</title><polygon points="191.01 0 95.51 95.51 191.01 95.51 191.01 286.52 286.52 191.24 286.52 0 191.01 0" style="fill:#ea5616"/><polygon points="95.51 286.52 191.01 191.01 95.51 191.01 95.51 0 0 95.28 0 286.52 95.51 286.52" style="fill:#fff"/><path d="M1318.81-666.49h50.14v-148h76.4v148h50.14v-191H1318.81v191Zm487.05-119.44H1763v-28.59h95.39v-43H1712.88v191h95.36c38.23,0,66.88-19.17,66.88-59.72s-28.65-59.72-69.27-59.72m-4.78,78.85H1763v-38.16h38.06c11.83,0,23.8,4.66,23.8,19s-12,19.14-23.8,19.14m-182.87-.12c-33.46,0-52.28-24.54-52.28-54.86,0-24.35,13.7-54.91,51.33-54.91,23.49,0,38.64,14.36,44,21l30.49-30.49a100.06,100.06,0,0,0-76.89-35.93c-55.38,0-99.09,41-99.09,100.28,0,55.39,43.7,100.28,99.09,100.28a100.13,100.13,0,0,0,80.8-40.9L1665-733.37c-9.71,15.21-25.55,26.17-46.78,26.17" transform="translate(-936.78 905.25)" style="fill:#fff"/></svg>