<svg id="Layer_1" data-name="Layer 1" xmlns="http://www.w3.org/2000/svg" viewBox="0 0 343.66 154.77"><title>qiwi</title><path d="M238.11,161.59h8.72c4.45,0,7.59,2.28,7.59,6.31a5.8,5.8,0,0,1-3,5.24v0.07a5.73,5.73,0,0,1,4,5.76c0,4.9-3.93,7.1-8.45,7.1h-8.86V161.59Zm8.76,10a2.92,2.92,0,0,0,3-3.14,2.84,2.84,0,0,0-3.1-3h-4.24v6.17h4.31Zm0.45,10.66a3.53,3.53,0,1,0,0-7.07h-4.76v7.07h4.76Zm20.31-14.17a9.33,9.33,0,0,1,6.76,2.62l-2,3a6.68,6.68,0,0,0-4.55-1.9,5.23,5.23,0,0,0-5.35,5.45,5.33,5.33,0,0,0,5.48,5.52,7.88,7.88,0,0,0,5.17-2.24l1.69,3.1a10.15,10.15,0,0,1-7.24,2.86c-5.83,0-9.55-4.1-9.55-9.21S261.8,168.07,267.63,168.07Zm17.8,0c5,0,7.79,3.69,7.79,8.34a13.88,13.88,0,0,1-.14,1.69H281a5,5,0,0,0,5.28,4.66,8.31,8.31,0,0,0,5-1.93L293,184a11.13,11.13,0,0,1-7.07,2.52,9,9,0,0,1-9.48-9.21C276.46,171.86,280.15,168.07,285.43,168.07Zm-5-6.48h3.38v4h-3.38v-4Zm8.45,13.52a3.46,3.46,0,0,0-3.52-3.72,4.22,4.22,0,0,0-4.24,3.72h7.76Zm-2.1-13.52h3.35v4h-3.35v-4Zm18.76,6.9h16v17.59h-4.38V172.21h-7.28v13.86H305.5V168.49Zm20.7,0h4v1.31a12,12,0,0,1-.07,1.24h0.07a6.44,6.44,0,0,1,5.66-3c4.76,0,7.79,3.76,7.79,9.21s-3.41,9.21-8,9.21a6.37,6.37,0,0,1-5.07-2.48h-0.07a10.19,10.19,0,0,1,.1,1.52V193h-4.38V168.49Zm8.62,14.31c2.41,0,4.41-2,4.41-5.45s-1.79-5.52-4.35-5.52c-2.31,0-4.45,1.66-4.45,5.55C330.45,180.11,332,182.8,334.83,182.8Zm21-14.72c5.38,0,9.69,3.83,9.69,9.21s-4.31,9.21-9.66,9.21-9.66-3.79-9.66-9.21S350.56,168.07,355.87,168.07Zm0,14.69a5.49,5.49,0,1,0-5.21-5.48A5.23,5.23,0,0,0,355.9,182.76Zm13.18-14.28h4.17v13.86h5.48V168.49h4.17v13.86h5.48V168.49h4.17v13.86H395v7.86h-3.93v-4.14h-22V168.49Zm36.82-.41c5,0,7.79,3.69,7.79,8.34a13.86,13.86,0,0,1-.14,1.69h-12.1a5,5,0,0,0,5.28,4.66,8.31,8.31,0,0,0,5-1.93l1.72,3.14a11.13,11.13,0,0,1-7.07,2.52,9,9,0,0,1-9.48-9.21C396.93,171.86,400.62,168.07,405.9,168.07Zm3.41,7a3.46,3.46,0,0,0-3.52-3.72,4.22,4.22,0,0,0-4.24,3.72h7.76Z" transform="translate(-70.03 -68.59)" style="fill:#ffffff"/><path d="M313.4,91.38v50.53a1.37,1.37,0,0,1-1.37,1.37H301.7a1.37,1.37,0,0,1-1.37-1.37V91.38A1.37,1.37,0,0,1,301.7,90H312A1.37,1.37,0,0,1,313.4,91.38ZM393.83,90H382.28A1.37,1.37,0,0,0,381,91l-9.14,29.86-10-29.89a1.37,1.37,0,0,0-1.3-.93h-8.06a1.37,1.37,0,0,0-1.3.93l-10,29.89L331.94,91a1.37,1.37,0,0,0-1.31-1H319.07a1.38,1.38,0,0,0-1.11.57,1.35,1.35,0,0,0-.19,1.23l17,50.55a1.37,1.37,0,0,0,1.3.93h9.17a1.37,1.37,0,0,0,1.3-.93l9.95-29.53,9.95,29.53a1.37,1.37,0,0,0,1.3.93h9.17a1.37,1.37,0,0,0,1.3-.93l17-50.55a1.35,1.35,0,0,0-.19-1.23A1.38,1.38,0,0,0,393.83,90Zm17.37,0H400.87a1.37,1.37,0,0,0-1.37,1.37v50.53a1.37,1.37,0,0,0,1.37,1.37H411.2a1.37,1.37,0,0,0,1.37-1.37V91.38A1.37,1.37,0,0,0,411.2,90ZM294.36,141.55a1,1,0,0,1-.8,1.74H280.91a1.73,1.73,0,0,1-1.33-.62l-2.14-2.58a28,28,0,1,1,8.34-8.36Zm-25.07-11.26-5.54-6.66a1.07,1.07,0,0,1,.82-1.76h11.59a16.37,16.37,0,0,0,.86-5.22c0-8.35-6.21-15.54-14.74-15.54s-14.74,7.2-14.74,15.54,6.21,15.44,14.74,15.44A14.3,14.3,0,0,0,269.29,130.28Zm-76.41,42.44c0.45,3-.5,4.27-1.46,4.27s-2.36-1.22-3.9-3.64-2.08-5.11-1.33-6.5a2.15,2.15,0,0,1,2.87-.81C191.61,167,192.61,170.92,192.88,172.72Zm-14.13,6.58c3.06,2.59,4,5.67,2.37,7.84A5,5,0,0,1,177,189a7.3,7.3,0,0,1-4.68-1.7c-2.78-2.43-3.6-6.38-1.78-8.62a4.05,4.05,0,0,1,3.25-1.36A7.82,7.82,0,0,1,178.75,179.3Zm-5.12,25c13.19,0,27.5,4.52,43.34,18.56,1.59,1.41,3.7-.34,2.32-2.09-15.57-19.66-30-23.4-44.33-26.56-17.56-3.87-26.6-13.75-32.9-24.61-1.25-2.16-1.81-1.78-1.93,1a61.4,61.4,0,0,0,.86,12.3h0c-0.71,0-1.42,0-2.14,0a45.5,45.5,0,1,1,45.5-45.5,46,46,0,0,1-.29,5.29,68.22,68.22,0,0,0-14.45-.27c-1.73.15-1.48,1-.18,1.19,15,2.72,25.37,12,27.74,29a0.42,0.42,0,0,0,.76.17,68.84,68.84,0,1,0-59.08,33.5C148.94,206.25,158.95,204.28,173.63,204.28Z" transform="translate(-70.03 -68.59)" style="fill:#ffffff"/></svg>