<svg id="Layer_1" data-name="Layer 1" xmlns="http://www.w3.org/2000/svg" viewBox="0 0 137.69 25.13"><title>rosbank</title><path d="M221.2,31a4.13,4.13,0,0,1,4.46,4.26c0,2.57-1.72,4.06-4.46,4.06h-5.45v4.21h-2.32V31h7.77Zm0.13,6.25a1.86,1.86,0,0,0,2-2,2,2,0,0,0-2.09-2.22h-5.45v4.18h5.58Z" transform="translate(-179.93 -24.64)"/><path d="M234.26,43.88c-4,0-7.3-2.65-7.3-6.63s3.31-6.63,7.3-6.63,7.26,2.71,7.26,6.63-3.25,6.63-7.26,6.63m0-11.12a4.56,4.56,0,0,0-4.89,4.49c0,2.59,1.9,4.51,4.89,4.51s4.86-1.93,4.86-4.51-1.88-4.49-4.86-4.49" transform="translate(-179.93 -24.64)"/><path d="M251.14,43.86c-4.19,0-7.35-2.66-7.35-6.63s3.2-6.61,7.35-6.61A9.28,9.28,0,0,1,257,32.49l-1.24,1.84a7.16,7.16,0,0,0-4.52-1.54c-3.06,0-5,1.94-5,4.44s1.92,4.46,5,4.46a7.39,7.39,0,0,0,4.59-1.5L257.07,42a9.53,9.53,0,0,1-5.93,1.84" transform="translate(-179.93 -24.64)"/><path d="M277.12,40.49l-1.43,3h-2.51L279.28,31h2.44l6.11,12.53h-2.51l-1.43-3h-6.76Zm1-2h4.83l-2.41-5.08Z" transform="translate(-179.93 -24.64)"/><polygon points="120.19 18.89 120.19 13.53 111.99 13.53 111.99 18.89 109.67 18.89 109.67 6.36 111.99 6.36 111.99 11.47 120.19 11.47 120.19 6.36 122.51 6.36 122.51 18.89 120.19 18.89"/><polygon points="125.95 18.89 125.95 6.36 128.27 6.36 128.27 12.21 134.56 6.36 137.42 6.36 130.94 12.39 137.69 18.89 134.56 18.89 128.27 12.81 128.27 18.89 125.95 18.89"/><path d="M267.45,35.59H262V33h9V31H259.69V43.51h7.76c2.74,0,4.62-1.49,4.62-4s-1.88-4-4.62-4m0.13,5.84H262V37.67h5.57c1.46,0,2.28.77,2.28,1.89s-0.66,1.89-2.28,1.89" transform="translate(-179.93 -24.64)"/><rect width="25.13" height="12.82" style="fill:#e9041e"/><rect y="12.57" width="25.13" height="12.57"/><rect x="4.39" y="11.8" width="16.35" height="1.53" style="fill:#fff"/></svg>