<svg xmlns="http://www.w3.org/2000/svg" viewBox="0 0 244.06 57.11"><defs><style>.cls-1{fill:#fff;}</style></defs><title></title><g id="Layer_2" data-name="Layer 2"><g id="logos"><g id="_4" data-name="4"><path class="cls-1" d="M27.28,24.12H19V19H41.51v5.08H33.27v14h-6Z"/><path class="cls-1" d="M64.55,19v19h-5.8V27l-10,11.07H43.64V19h5.8V30.11L59.43,19Z"/><path class="cls-1" d="M74.54,38.07h-5.8V19h5.8v7h9.32V19h5.8v19h-5.8V31H74.54Z"/><path class="cls-1" d="M93.85,38.07V19h5.8v5.12h6a12.35,12.35,0,0,1,4.24.52A6.41,6.41,0,0,1,114.21,31a6.57,6.57,0,0,1-5,6.6,13.16,13.16,0,0,1-3.64.44Zm5.8-4.6h5a5.47,5.47,0,0,0,2.28-.28A2.39,2.39,0,0,0,108.37,31a2.11,2.11,0,0,0-1.52-2.07,6.51,6.51,0,0,0-2.24-.25h-5Z"/><path class="cls-1" d="M122.68,38.07h-5.8V19h5.8V26.2h1.59l7-7.16h7.28l-9.28,9.11,9.64,9.92h-7.72l-6.92-7.2h-1.59Z"/><path class="cls-1" d="M163.43,28.59c0,5.68-4.68,10.08-12.44,10.08s-12.48-4.4-12.48-10.08S143.19,18.52,151,18.52,163.43,22.92,163.43,28.59Zm-6.08,0c0-3.11-2.52-5.39-6.36-5.39s-6.36,2.28-6.36,5.39S147.11,34,151,34,157.35,31.71,157.35,28.59Z"/><path class="cls-1" d="M194.23,28.55c0,5.44-4.36,8.28-11.68,8.44v1.92h-5.8V37c-7.28-.16-11.64-3-11.64-8.44s4.36-8.51,11.64-8.67V18h5.8v1.92C189.87,20,194.23,23.12,194.23,28.55ZM176.75,24c-4,.16-5.76,2-5.76,4.55s1.76,4.2,5.76,4.36Zm11.56,4.55c0-2.55-1.72-4.39-5.76-4.55v8.91C186.59,32.75,188.31,31.11,188.31,28.55Z"/><path class="cls-1" d="M225,28.55c0,5.44-4.36,8.28-11.68,8.44v1.92h-5.8V37c-7.28-.16-11.64-3-11.64-8.44s4.36-8.51,11.64-8.67V18h5.8v1.92C220.67,20,225,23.12,225,28.55ZM207.55,24c-4,.16-5.76,2-5.76,4.55s1.76,4.2,5.76,4.36Zm11.56,4.55c0-2.55-1.72-4.39-5.76-4.55v8.91C217.39,32.75,219.11,31.11,219.11,28.55Z"/></g></g></g></svg>