<svg id="Layer_1" data-name="Layer 1" xmlns="http://www.w3.org/2000/svg" viewBox="0 0 525.29 100"><title>yandexmoney</title><path d="M32.66,62.88L18,95.73H7.36L23.42,60.6C15.87,56.76,10.83,49.81,10.83,37c0-18,11.39-27,24.94-27H49.56V95.73H40.33V62.88H32.66Zm7.67-45.08H35.41C28,17.79,20.79,22.71,20.79,37c0,13.79,6.59,18.23,14.63,18.23h4.92V17.79Z" transform="translate(-7.36 -10)" style="fill:red"/><path d="M94.06,35.3V95.73H84.83V68.63H70.92v27.1H61.57V35.3h9.35V61H84.83V35.3h9.23Zm48.08,72.3h-8.39V95.73h-25.9V107.6H99.46V88.06h3.72c5.51-12.83,6.11-31.53,6.11-47.6V35.3h28.06V88.06h4.8V107.6Zm-14-64.75H117.68v1.08c0,12.71-.6,31.29-5.63,44.12h16.07V42.85Zm39.81,53.72c-12.47,0-20.14-9.95-20.14-28.53,0-19.43,5.4-33.58,18.23-33.58,10.07,0,16.67,7.55,16.67,28.06v5.16H157.49c0,13.67,3.84,20.86,11.27,20.86a21,21,0,0,0,11.87-4.08l2.16,7.19A23.79,23.79,0,0,1,167.92,96.57ZM157.61,60h15.47c0-10.31-1.68-17.87-7.07-17.87C160.25,42.13,158.21,49.21,157.61,60Zm44,5.63v30.1h-9.35V35.3h9.35V63.24L216.12,35.3h9.47l-15,28.42,17.15,32H217.56ZM229,65.52c0-18.95,7.32-31.06,21.46-31.06a19,19,0,0,1,11.15,3.12l-1.32,8.87c-2.52-2.16-6.11-4.2-10-4.2-6.72,0-11.51,7.55-11.51,22.78s3.6,23.74,11.15,23.74a15.28,15.28,0,0,0,10.19-3.72l2.16,7a18.3,18.3,0,0,1-12.59,4.56C236.74,96.57,229,86.14,229,65.52Z" transform="translate(-7.36 -10)"/><path d="M325.88,95.73H289.19L288.35,110h-4.68V90.82h2.52c4.2-3.48,6.23-13.07,7.43-25.3,1.2-12.71,1.56-31.66,1.92-55.52h30V90.82h5.88V110h-4.68Zm-6.35-80.82H300.94c-0.36,21.7-1,38.25-1.92,50.6-1.08,12.83-3,21.34-6.23,25.3h26.74V14.92Z" transform="translate(-7.36 -10)"/><path d="M356.23,92a15.41,15.41,0,0,0,12.23-6.47l1.8,4.55a17.45,17.45,0,0,1-14.15,6.84c-12.83,0-18.71-11.63-18.71-31.41S344.84,34.1,355,34.1c10.43,0,17.14,10.91,15.23,32.38H342.92C343.16,83,347.48,92,356.23,92ZM343,62H365c1-16.06-3.84-23.26-10-23.26C348.68,38.78,343.52,46.93,343,62Z" transform="translate(-7.36 -10)"/><path d="M407.2,66.59H386.57V95.73h-5.63V35.3h5.63V62H407.2V35.3h5.63V95.73H407.2V66.59Z" transform="translate(-7.36 -10)"/><path d="M426.16,35.3h5.63V57.72h4.44c11.51,0,18.94,6.23,18.94,18.83,0,12.83-7.91,19.18-19.3,19.18h-9.71V35.3Zm5.63,26.86V91.29h3.6c8.51,0,14.27-4.19,14.27-14.63,0-10.19-5-14.51-13.67-14.51h-4.2Z" transform="translate(-7.36 -10)"/><path d="M470.4,40V95.73h-5.51V35.3h25.54V40h-20Z" transform="translate(-7.36 -10)"/><path d="M527.25,53.65a82.12,82.12,0,0,1,.48-8.27h-0.36a53.59,53.59,0,0,1-3.24,7.79L504.47,95.73h-4.8V35.3h5.28v42c0,3.24-.24,5.87-0.48,8.51h0.36a65.85,65.85,0,0,1,3.24-8L527.73,35.3h4.91V95.73h-5.39V53.65Z" transform="translate(-7.36 -10)"/></svg>