<svg width="20" height="16" viewBox="0 0 20 16" fill="none" xmlns="http://www.w3.org/2000/svg">
<path d="M10.95 1.9H2.4V4.75H10.95V8.55H2.4V13.3H17.6V8.55H19.5V13.3C19.5 14.3493 18.6493 15.2 17.6 15.2H2.4C1.35066 15.2 0.5 14.3493 0.5 13.3V1.9C0.5 0.850659 1.35066 0 2.4 0H10.95V1.9Z" fill="#002882"/>
<path d="M18.5501 0.949928C18.9211 1.32093 18.9211 1.92243 18.5501 2.29343L16.0936 4.74986H17.6C18.1247 4.74986 18.55 5.17519 18.55 5.69986C18.55 6.22453 18.1247 6.64986 17.6 6.64986H12.85V1.89986C12.85 1.37519 13.2753 0.949857 13.8 0.949857C14.3247 0.949857 14.75 1.37519 14.75 1.89986V3.4065L17.2066 0.949928C17.5776 0.57893 18.1791 0.57893 18.5501 0.949928Z" fill="#002882"/>
</svg>
