<svg id="Layer_1" data-name="Layer 1" xmlns="http://www.w3.org/2000/svg" viewBox="0 0 133.61 44.89"><title>logo</title><path d="M767.28,326.24a10.81,10.81,0,0,1,.07,3.48,8,8,0,0,1-1.07,3A7.17,7.17,0,0,1,764,335a9.5,9.5,0,0,1-3.55,1.31l-4.11.72,1.9,10.76-4.59.81-4.95-28,8.46-1.49a11.38,11.38,0,0,1,3.64-.1,7.29,7.29,0,0,1,3,1.12,7.11,7.11,0,0,1,2.21,2.39A11.25,11.25,0,0,1,767.28,326.24Zm-4.57.7a4.64,4.64,0,0,0-1.57-3,4,4,0,0,0-3.26-.56L754,324l1.53,8.66,3.87-.68a3.8,3.8,0,0,0,2.83-1.72A4.9,4.9,0,0,0,762.71,326.94Z" transform="translate(-748.7 -311.68)"/><path d="M778.61,349.38L770.84,348q-0.15.35-.54,1.15t-0.82,1.72l-0.8,1.73q-0.37.81-.56,1.15l-4.8-.85,13-26.62,4.43,0.78L784,356.56l-4.88-.86ZM775,338.69l-2.45,5.39,5.72,1-0.42-5.85q0-.38,0-1.26t-0.09-1.84q-0.06-1-.11-1.83a10.72,10.72,0,0,1,0-1.23l-0.2,0Z" transform="translate(-748.7 -311.68)"/><path d="M789.34,325.07q0.2-1.45.45-2.86t0.49-2.87l1.34-6.8,4.88-.86-4.17,17.85,2,11.45-4.51.8-2-11.45-10-15.39,5-.88q0.9,1.55,1.8,3t1.76,3l1.38,2.5,1.38,2.5Z" transform="translate(-748.7 -311.68)"/><path d="M809.35,324.76l-4.21,23.86-4.59-.81L804.76,324l-6.17-1.09,0.74-4.19,17,3-0.74,4.19Z" transform="translate(-748.7 -311.68)"/><path d="M832.72,326.58l3.45,19.55a10.3,10.3,0,0,1,0,3.76A7.75,7.75,0,0,1,834.9,353a8,8,0,0,1-2.41,2.21,10.6,10.6,0,0,1-7.29,1.18,7.62,7.62,0,0,1-3-1.44,8.23,8.23,0,0,1-2.11-2.56,11.12,11.12,0,0,1-1.16-3.39l-3.41-19.34,4.59-.81,3.43,19.47a4.9,4.9,0,0,0,1.57,2.92,3.71,3.71,0,0,0,3.27.75,3.85,3.85,0,0,0,2.61-1.6,4.12,4.12,0,0,0,.58-3.2L828,327.4Z" transform="translate(-748.7 -311.68)"/><path d="M850.42,342l-2.13-12.43-3.59-.63-2.06,11.69-4.59-.81,4.95-28,9,1.59a10.17,10.17,0,0,1,3.14,1.07,6.8,6.8,0,0,1,3.52,4.78,9.6,9.6,0,0,1,0,3.63,9.1,9.1,0,0,1-1.94,4.4,7.3,7.3,0,0,1-3.86,2.35l2.6,13.3Zm3.73-20a3.9,3.9,0,0,0-.49-3.1,4.15,4.15,0,0,0-2.73-1.46l-4.07-.72-1.41,8,4,0.71a4,4,0,0,0,3.07-.54A4.23,4.23,0,0,0,854.15,322Z" transform="translate(-748.7 -311.68)"/><path d="M866.71,349.4l-4.95-28,15.6-2.75,0.75,4.27-11,1.94,1.32,7.5,9.47-1.67,0.74,4.19-9.47,1.67,1.36,7.74,11-1.94,0.77,4.35Z" transform="translate(-748.7 -311.68)"/></svg>