<?xml version="1.0" encoding="UTF-8" standalone="no"?>
<svg
   xmlns:dc="http://purl.org/dc/elements/1.1/"
   xmlns:cc="http://creativecommons.org/ns#"
   xmlns:rdf="http://www.w3.org/1999/02/22-rdf-syntax-ns#"
   xmlns:svg="http://www.w3.org/2000/svg"
   xmlns="http://www.w3.org/2000/svg"
   viewBox="0 0 323.18668 113.17333"
   height="113.17333"
   width="323.18668"
   xml:space="preserve"
   id="svg2"
   version="1.1"><metadata
     id="metadata8"><rdf:RDF><cc:Work
         rdf:about=""><dc:format>image/svg+xml</dc:format><dc:type
           rdf:resource="http://purl.org/dc/dcmitype/StillImage" /></cc:Work></rdf:RDF></metadata><defs
     id="defs6" /><g
     transform="matrix(1.3333333,0,0,-1.3333333,0,113.17333)"
     id="g10"><g
       transform="scale(0.1)"
       id="g12"><path
         id="path14"
         style="fill:#00a768;fill-opacity:1;fill-rule:nonzero;stroke:none"
         d="M 445.781,592.93 V 417.363 l -0.019,-0.027 c -0.074,-7.609 -6.258,-13.742 -13.883,-13.742 h -20.93 v 0 c -1.047,0 -1.883,-0.84 -1.883,-1.883 V 254.602 c 5.168,-0.493 10.399,-0.723 15.715,-0.723 93.981,0 170.176,76.18 170.176,170.176 0,86.851 -65.094,158.535 -149.176,168.875 z M 442.32,331.223 c -11.761,0 -21.269,9.507 -21.269,21.257 0,11.747 9.508,21.27 21.269,21.27 11.743,0 21.266,-9.523 21.266,-21.27 0,-11.75 -9.523,-21.257 -21.266,-21.257 z m 49.879,0 c -11.734,0 -21.258,9.507 -21.258,21.257 0,11.747 9.524,21.27 21.258,21.27 11.742,0 21.289,-9.523 21.289,-21.27 0,-11.75 -9.547,-21.257 -21.289,-21.257 z m 49.871,0 c -11.746,0 -21.277,9.507 -21.277,21.257 0,11.747 9.531,21.27 21.277,21.27 11.735,0 21.262,-9.523 21.262,-21.27 0,-11.75 -9.527,-21.257 -21.262,-21.257" /><path
         id="path16"
         style="fill:#00a768;fill-opacity:1;fill-rule:nonzero;stroke:none"
         d="m 424.781,594.211 c -93.988,0 -170.179,-76.184 -170.179,-170.156 0,-81.594 57.41,-149.746 134.007,-166.321 v 152.704 h 0.02 c 0.152,7.367 6.019,13.312 13.34,13.593 l 0.015,0.024 h 21.465 c 1.016,0 1.828,0.781 1.879,1.773 l 0.02,168.36 z M 392.16,453.887 c -11.738,0 -21.265,9.531 -21.265,21.269 0,11.739 9.527,21.27 21.265,21.27 11.758,0 21.281,-9.531 21.281,-21.27 0,-11.738 -9.523,-21.269 -21.281,-21.269" /><path
         id="path18"
         style="fill:#00a768;fill-opacity:1;fill-rule:nonzero;stroke:none"
         d="m 2126.75,500.645 v -64.219 h -86.21 v 64.219 h -42.52 V 331.086 h 42.52 v 68.523 h 86.21 v -68.523 h 42.51 v 169.559 h -42.51" /><path
         id="path20"
         style="fill:#00a768;fill-opacity:1;fill-rule:nonzero;stroke:none"
         d="m 1419.04,481.738 c -7.09,15.391 -21.25,22.95 -34.88,22.95 h -0.03 c -13.65,0 -27.8,-7.559 -34.9,-22.95 l -69.48,-150.652 h 45.2 l 15.15,35.801 h 88.08 l 15.16,-35.801 h 45.19 z m -64.53,-80.918 26.17,61.575 c 0.81,1.921 2.31,2.418 3.45,2.418 h 0.01 c 0.01,0 0.01,0 0.01,0 1.14,0 2.64,-0.497 3.46,-2.418 l 26.17,-61.575 h -59.27" /><path
         id="path22"
         style="fill:#00a768;fill-opacity:1;fill-rule:nonzero;stroke:none"
         d="m 913.359,531.348 c -19.902,0 -32.593,-10.594 -42.015,-31.946 l -55.41,-127.605 -55.446,127.605 c -9.402,21.352 -22.093,31.946 -42.019,31.946 -18.61,0 -37.852,-13.321 -37.852,-42.278 V 331.086 h 42.453 v 153.648 l 55.762,-126.511 c 7.481,-17.688 19.543,-28.797 37.078,-28.797 h 0.031 v 0 c 17.532,0 29.579,11.109 37.082,28.797 L 908.77,484.734 V 331.086 h 42.46 V 489.07 c 0,28.957 -19.265,42.278 -37.871,42.278" /><path
         id="path24"
         style="fill:#00a768;fill-opacity:1;fill-rule:nonzero;stroke:none"
         d="m 1025.65,366.914 c -2.04,0 -3.65,1.672 -3.65,3.66 v 30.246 h 105.95 v 34.563 H 1022 v 25.801 c 0,1.953 1.61,3.629 3.65,3.629 h 104.77 v 35.832 h -125.66 c -14.721,0 -25.295,-12.317 -25.295,-25.286 V 356.367 c 0,-12.988 10.574,-25.281 25.295,-25.281 h 125.66 v 35.828 h -104.77" /><path
         id="path26"
         style="fill:#00a768;fill-opacity:1;fill-rule:nonzero;stroke:none"
         d="m 1202.52,331.086 v 130.098 c 0,1.953 1.61,3.629 3.66,3.629 h 104.78 v 35.832 h -125.67 c -14.73,0 -25.3,-12.317 -25.3,-25.286 V 331.086 h 42.53" /><path
         id="path28"
         style="fill:#00a768;fill-opacity:1;fill-rule:nonzero;stroke:none"
         d="m 1969.9,416.145 c -0.02,59.39 -25.53,87.078 -89.89,87.078 h -14.87 c -64.36,0 -89.87,-27.688 -89.89,-87.078 v -0.082 c 0,-58.446 26.05,-86.637 90.27,-86.637 h 14.11 c 64.19,0 90.27,28.191 90.27,86.637 z m -90.53,-51.614 h -13.6 c -35.45,0 -49.14,15.946 -49.14,51.453 v 0.118 c 0,34.496 12.04,51.437 49.14,51.437 h 13.6 c 36.05,0 49.13,-16.941 49.13,-51.394 v -0.161 c 0,-35.507 -13.95,-51.453 -49.13,-51.453" /><path
         id="path30"
         style="fill:#00a768;fill-opacity:1;fill-rule:nonzero;stroke:none"
         d="m 1656.7,527.352 h -84.15 c -62.78,0 -87.9,-31.754 -87.9,-87.157 0,-8.664 0.52,-16.672 1.77,-24.05 6.65,-39.219 29.72,-63.325 88.51,-63.325 h 18.5 v -21.734 h 42.41 v 21.734 h 18.49 c 58.81,0 81.87,24.106 88.52,63.325 1.24,7.378 1.75,15.386 1.75,24.05 0,55.403 -25.1,87.157 -87.9,87.157 z m -63.27,-138.739 h -19.47 c -28.76,0 -39.12,10.735 -45.46,27.532 -2.44,6.472 -2.43,14.675 -2.43,23.984 0,36.172 16.73,51.473 41.23,51.473 h 26.13 z m 107.33,27.532 c -6.34,-16.797 -16.69,-27.532 -45.45,-27.532 h -19.47 v 102.989 h 26.14 c 24.48,0 41.2,-15.301 41.2,-51.473 0,-9.309 0.02,-17.512 -2.42,-23.984" /></g></g></svg>