<svg id="Layer_1" data-name="Layer 1" xmlns="http://www.w3.org/2000/svg" width="137.16" height="140.13" viewBox="0 0 137.16 140.13"><title>logo_mini</title><path d="M353.23,240.39H303c-6.87-11.85-19.06-16.47-35.39-13l-34.68,7.26,1.21,5.79H216.07v126H353.23v-126Zm-2.83,123.15H218.9V243.23h15.82l21.44,102.36,18-3.78-9.3-44.39,16.65-3.49c21.45-4.49,30.81-18.81,26.32-40.27a47.66,47.66,0,0,0-3.39-10.44h45.93V363.54Zm-72.34-86.26-16.65,3.49-7-33.29L271.08,244c11.55-2.42,16.1.85,18.74,13.45S289.6,274.86,278.05,277.28Z" transform="translate(-216.07 -226.25)" style="fill:#202124"/></svg>