<svg width="103" height="40" viewBox="0 0 103 40" fill="none" xmlns="http://www.w3.org/2000/svg">
<path fill-rule="evenodd" clip-rule="evenodd" d="M5.21644 3.83706C5.39663 5.64955 6.78865 7.43704 9.03592 8.73703C10.6081 9.64952 12.6067 10.0995 13.8337 10.3245L13.7487 10.6745L15.3108 10.512L16.8703 10.6745L16.7865 10.3245C18.0136 10.112 20.0109 9.64952 21.5831 8.73703C23.8304 7.43704 25.2224 5.64955 25.4026 3.83706C25.5193 2.67457 25.1069 1.62458 24.2428 0.862083C23.4357 0.149588 22.3457 -0.13791 21.1758 0.0620884C19.299 0.362086 17.2763 1.87458 16.1368 3.83706C15.8234 4.38706 15.5481 4.94955 15.3095 5.51205C15.0709 4.94955 14.7956 4.38706 14.4822 3.83706C13.3427 1.87458 11.3187 0.349586 9.44324 0.0620884C8.27329 -0.13791 7.18328 0.149588 6.37624 0.862083C5.5121 1.62458 5.0997 2.67457 5.21644 3.83706ZM8.20233 2.87519C8.26958 2.82519 8.47641 2.63769 9.00048 2.72519C9.01063 2.72519 9.02078 2.72519 9.02967 2.72519C10.0905 2.91269 11.3785 3.93768 12.1005 5.18767C12.5116 5.90017 12.8555 6.70016 13.1194 7.41266C12.2388 7.20016 11.2351 6.87516 10.4268 6.41266C8.70482 5.41267 8.01452 4.26268 7.946 3.57518C7.90793 3.18769 8.06401 3.00019 8.20233 2.87519ZM18.5226 5.18729C19.2434 3.9373 20.5313 2.91231 21.5921 2.72481H21.5972C21.6036 2.72481 21.6125 2.72481 21.6213 2.72481C22.1441 2.63731 22.3522 2.81231 22.4195 2.87481C22.5591 2.99981 22.7139 3.18731 22.6758 3.57481C22.6086 4.2623 21.917 5.41229 20.1951 6.39979C19.3855 6.87478 18.3818 7.19978 17.5037 7.41228C17.7676 6.69978 18.1089 5.88729 18.5226 5.18729ZM43.7906 9.64974H39.8176V21.7122H42.4608V12.5747H42.4963L44.3858 18.6122H46.9756L48.8664 12.5747H48.9019V21.7122H51.5451V9.64974H47.7116L45.7511 15.9372L43.7906 9.64974ZM54.7404 21.5872V19.3997C55.0728 19.5622 55.5626 19.6372 55.8951 19.6372C56.5423 19.6372 56.8405 19.3372 56.9991 18.8872L57.1564 18.4497L52.9893 9.64974H56.0537L58.3454 15.6247H58.3987L60.377 9.64974H63.3526L59.4836 19.2497C59.1512 20.0747 58.7147 20.9497 58.1538 21.3497C57.5764 21.7747 56.9115 21.9122 56.3506 21.9122C55.8951 21.9122 55.4396 21.8997 54.7404 21.5872ZM63.011 19.4872V21.7497C63.3777 21.8247 63.8865 21.9122 64.4119 21.9122C66.4422 21.9122 67.6667 20.7122 67.6667 12.2372V11.8247H70.0485V21.7122H72.9188V9.64974H65.0946V12.2372C65.0946 19.0747 64.5692 19.5872 63.7114 19.5872C63.3625 19.5872 63.1861 19.5372 63.011 19.4872ZM78.7781 9.64974H75.9078H75.9053V21.7122H79.4075C82.5938 21.7122 83.9757 20.3372 83.9757 17.7497C83.9757 15.1622 82.5938 13.7872 79.4075 13.7872H78.7781V9.64974ZM78.782 15.8873H79.4114C80.5839 15.8873 81.1117 16.3998 81.1117 17.7498C81.1117 19.0873 80.5851 19.6123 79.2553 19.6123H78.782V15.8873ZM83.8442 11.8247H86.5039V21.7122H89.3742V11.8247H92.0352V9.64974H83.8442V11.8247ZM93.8105 9.64974H96.6809V14.7497L96.5946 17.7247H96.6809L99.7631 9.64974H103V21.7122H100.13V16.6122L100.216 13.6247H100.13L97.0489 21.7122H93.8105V9.64974ZM39.8252 27.7244H47.2472V29.8994H42.66V32.4369H43.9899C45.6699 32.4369 48.0682 32.8493 48.0682 36.0993C48.0682 38.5368 46.3348 39.7868 44.0939 39.7868H39.824V27.7244H39.8252ZM42.6255 37.7622H43.5531C44.4629 37.7622 45.2331 37.2622 45.2331 36.0997C45.2331 35.0747 44.6735 34.4622 43.4655 34.4622H42.6255V37.7622ZM59.7514 33.7617C59.7514 30.2117 58.07 27.5242 54.5526 27.5242C51.0338 27.5242 49.3703 30.2117 49.3728 33.7617C49.3728 37.3117 51.0351 39.9991 54.5526 39.9991C58.07 39.9991 59.7514 37.3117 59.7514 33.7617ZM56.8114 33.7617C56.8114 36.0742 56.215 37.9617 54.5527 37.9617C52.8891 37.9617 52.3118 36.0742 52.3118 33.7617C52.3118 31.4492 52.8891 29.5492 54.5527 29.5492C56.215 29.5492 56.8114 31.4492 56.8114 33.7617ZM64.497 34.7743H67.4727V39.7868H70.343V27.7244H67.4727V32.5368H64.497V27.7244H61.6267V39.7868H64.497V34.7743ZM73.5379 39.6743V37.4868C73.8717 37.6368 74.3615 37.7243 74.6939 37.7243C75.3411 37.7243 75.6393 37.4118 75.7966 36.9618L75.9552 36.5368L71.7881 27.7244H74.8525L77.1442 33.7118H77.1975L79.1758 27.7244H82.1514L78.2825 37.3243C77.95 38.1493 77.5135 39.0368 76.9526 39.4243C76.3753 39.8618 75.7103 39.9993 75.1495 39.9993C74.6939 39.9993 74.2384 39.9868 73.5379 39.6743ZM87.7599 27.5242C85.2741 27.5242 82.2629 29.2867 82.2629 33.7117C82.2629 37.5367 84.6092 39.9991 87.9528 39.9991C89.5111 39.9991 90.5262 39.7241 91.016 39.5741V37.0492C90.7356 37.2117 89.8093 37.6867 88.4084 37.6867C86.5874 37.6867 85.2043 36.0867 85.2043 33.7492C85.2043 31.3117 86.4301 29.7617 88.3551 29.7617C89.6671 29.7617 90.5605 30.2117 90.9805 30.4492V28.1117H90.9779C90.5211 27.9117 89.5758 27.5242 87.7599 27.5242Z" fill="#002882"/>
<path fill-rule="evenodd" clip-rule="evenodd" d="M0 9.9996H30.4543V17.4996H0V9.9996ZM0 21.2509H30.4543V28.7509H0V21.2509ZM30.4543 32.5002H0V40.0002H30.4543V32.5002Z" fill="#00AAFF"/>
</svg>
