<?xml version="1.0" encoding="utf-8"?>
<svg width="35px" height="24px" viewBox="0 0 35 24" version="1.1" xmlns:xlink="http://www.w3.org/1999/xlink" xmlns="http://www.w3.org/2000/svg">
  <desc>Created with Lunacy</desc>
  <g id="visa" transform="translate(0.5 0.5)">
    <path d="M1.999 0L32.001 0C33.105 0 34 0.894983 34 1.999L34 20.3135C34 21.4175 33.105 22.3125 32.001 22.3125L1.999 22.3125C0.894983 22.3125 0 21.4175 0 20.3135L0 1.999C0 0.894983 0.894983 0 1.999 0Z" id="Rectangle" fill="none" stroke="#E2E2E2" stroke-width="1" />
    <g id="Visa_Inc._logo-(1)" transform="translate(2 6)">
      <path d="M2.43508 9.4003L0 9.4003L1.52307 0L3.95802 0L2.43508 9.4003Z" transform="translate(10.56972 0.17991)" id="polygon9" fill="#00579F" stroke="none" />
      <path d="M7.28636 0.400387C6.80725 0.2101 6.04735 0 5.10773 0C2.70901 0 1.01985 1.28055 1.00949 3.11135C0.989561 4.4621 2.21887 5.21235 3.1383 5.66273C4.07805 6.12296 4.3975 6.42335 4.3975 6.83358C4.38794 7.46361 3.63813 7.75403 2.9388 7.75403C1.96903 7.75403 1.44941 7.6043 0.659752 7.25378L0.339904 7.10352L0 9.21463C0.569695 9.47446 1.61929 9.70504 2.70901 9.71514C5.25769 9.71514 6.91697 8.45441 6.93662 6.5034C6.94632 5.43282 6.29719 4.6125 4.89773 3.94217C4.04817 3.51187 3.52788 3.22171 3.52788 2.78143C3.53785 2.38118 3.96794 1.97122 4.92695 1.97122C5.71661 1.95114 6.2968 2.14116 6.73632 2.33132L6.95602 2.43118L7.28636 0.400387L7.28636 0.400387L7.28636 0.400387Z" transform="translate(14.48276 0)" id="path11" fill="#00579F" stroke="none" />
      <path d="M4.88295 0L6.76387 0L8.72564 9.4003L6.47412 9.4003C6.47412 9.4003 6.25378 8.32022 6.18397 7.99018L3.06187 7.99018C2.97158 8.24007 2.55151 9.4003 2.55151 9.4003L0 9.4003L3.61198 0.779958C3.86224 0.169868 4.30291 0 4.88295 0ZM4.73309 3.44003C4.73309 3.44003 3.9625 5.53015 3.76224 6.07019L5.78345 6.07019C5.68345 5.6002 5.22296 3.35004 5.22296 3.35004L5.05302 2.54005C4.9351 2.88373 4.73049 3.4397 4.73275 3.44054L4.73309 3.44003Z" transform="translate(21.27436 0.17991)" id="path13" fill="#00579F" fill-rule="evenodd" stroke="none" />
      <path d="M5.98318 0L3.60986 6.41691L3.35052 5.11549C2.91174 3.61381 1.53565 1.98227 0 1.17103L2.17387 9.4003L4.73655 9.4003L8.54573 4.72711e-16L5.98318 4.72711e-16L5.98318 4.72711e-16L5.98318 0Z" transform="translate(2.563718 0.17991)" id="path15" fill="#00579F" stroke="none" />
      <path d="M3.94471 0L0.0399475 0L0 0.190567C3.04596 0.973238 5.06324 2.85984 5.89205 5.12744L5.0432 0.792806C4.90345 0.190434 4.47398 0.0198702 3.94471 0L3.94471 0Z" transform="translate(0 0.17991)" id="path17" fill="#FAA61A" stroke="none" />
    </g>
  </g>
</svg>