<?xml version="1.0" encoding="utf-8"?>
<svg width="35px" height="24px" viewBox="0 0 35 24" version="1.1" xmlns:xlink="http://www.w3.org/1999/xlink" xmlns="http://www.w3.org/2000/svg">
  <desc>Created with Lunacy</desc>
  <defs>
    <linearGradient x1="8.147837E-05" y1="0.5" x2="1" y2="0.5" id="gradient_1">
      <stop offset="0.3" stop-color="#00B4E6" />
      <stop offset="1" stop-color="#088CCB" />
    </linearGradient>
  </defs>
  <g id="mir" transform="translate(0.5 0.5)">
    <path d="M1.999 0L32.001 0Q32.0992 0 32.1969 0.00962573Q32.2947 0.0192515 32.391 0.0384102Q32.4873 0.057569 32.5813 0.0860763Q32.6753 0.114584 32.766 0.152165Q32.8567 0.189746 32.9433 0.236039Q33.0299 0.282333 33.1116 0.336892Q33.1932 0.391452 33.2691 0.453752Q33.3451 0.516052 33.4145 0.585494Q33.4839 0.654935 33.5462 0.730848Q33.6085 0.806761 33.6631 0.888415Q33.7177 0.970069 33.764 1.05668Q33.8102 1.14329 33.8478 1.23402Q33.8854 1.32474 33.9139 1.41872Q33.9424 1.5127 33.9616 1.60901Q33.9807 1.70533 33.9904 1.80306Q34 1.9008 34 1.999L34 21.001Q34 21.0992 33.9904 21.1969Q33.9807 21.2947 33.9616 21.391Q33.9424 21.4873 33.9139 21.5813Q33.8854 21.6753 33.8478 21.766Q33.8102 21.8567 33.764 21.9433Q33.7177 22.0299 33.6631 22.1116Q33.6085 22.1932 33.5462 22.2691Q33.4839 22.3451 33.4145 22.4145Q33.3451 22.4839 33.2691 22.5462Q33.1932 22.6085 33.1116 22.6631Q33.0299 22.7177 32.9433 22.764Q32.8567 22.8103 32.766 22.8478Q32.6753 22.8854 32.5813 22.9139Q32.4873 22.9424 32.391 22.9616Q32.2947 22.9807 32.1969 22.9904Q32.0992 23 32.001 23L1.999 23Q1.9008 23 1.80306 22.9904Q1.70533 22.9807 1.60901 22.9616Q1.5127 22.9424 1.41872 22.9139Q1.32474 22.8854 1.23402 22.8478Q1.14329 22.8103 1.05668 22.764Q0.970069 22.7177 0.888415 22.6631Q0.806761 22.6085 0.730848 22.5462Q0.654935 22.4839 0.585494 22.4145Q0.516052 22.3451 0.453752 22.2691Q0.391452 22.1932 0.336892 22.1116Q0.282333 22.0299 0.236039 21.9433Q0.189746 21.8567 0.152165 21.766Q0.114584 21.6753 0.0860763 21.5813Q0.057569 21.4873 0.0384102 21.391Q0.0192515 21.2947 0.00962573 21.1969Q0 21.0992 0 21.001L0 1.999Q0 1.9008 0.00962573 1.80306Q0.0192515 1.70533 0.0384102 1.60901Q0.057569 1.5127 0.0860763 1.41872Q0.114584 1.32474 0.152165 1.23402Q0.189746 1.14329 0.236039 1.05668Q0.282333 0.970069 0.336892 0.888415Q0.391452 0.806761 0.453752 0.730848Q0.516052 0.654935 0.585494 0.585494Q0.654935 0.516052 0.730848 0.453752Q0.806761 0.391452 0.888415 0.336892Q0.970069 0.282333 1.05668 0.236039Q1.14329 0.189746 1.23402 0.152165Q1.32474 0.114584 1.41872 0.0860763Q1.5127 0.057569 1.60901 0.0384102Q1.70533 0.0192515 1.80306 0.00962573Q1.9008 0 1.999 0L1.999 0Z" id="Rectangle" fill="none" stroke="none" />
    <g id="mir-logo" transform="translate(4 8)">
      <g id="g5">
        <path d="M7.05065 7.09863e-08L7.05065 0.00324255C7.04742 0.00324255 6.02863 7.09863e-08 5.75696 0.975988C5.50792 1.87091 4.80609 4.34169 4.78668 4.40978L4.59263 4.40978C4.59263 4.40978 3.87463 1.88388 3.62235 0.972745C3.35068 -0.00324241 2.32866 7.09863e-08 2.32866 7.09863e-08L0 7.09863e-08L0 7.42529L2.32866 7.42529L2.32866 3.01551L2.42568 3.01551L2.52271 3.01551L3.88109 7.42529L5.49822 7.42529L6.8566 3.01875L7.05065 3.01875L7.05065 7.42529L9.37931 7.42529L9.37931 7.09863e-08L7.05065 7.09863e-08Z" id="path7" fill="#4DB45E" stroke="none" />
      </g>
      <g id="g9" transform="translate(10.35632 0)">
        <path d="M5.21073 0C5.21073 0 4.52356 0.0616072 4.20115 0.778196L2.54023 4.40978L2.34483 4.40978L2.34483 0L0 0L0 7.42529L2.21456 7.42529L2.21456 7.42529C2.21456 7.42529 2.93429 7.36044 3.2567 6.64709L4.88506 3.01551L5.08046 3.01551L5.08046 7.42529L7.42529 7.42529L7.42529 0L5.21073 0Z" id="path11" fill="#4DB45E" stroke="none" />
      </g>
      <g id="g13" transform="translate(18.85632 3.321839)">
        <path d="M0 0L0 4.10345L2.32389 4.10345L2.32389 1.70703L4.84144 1.70703C5.93883 1.70703 6.86839 0.994676 7.21375 0L0 0Z" id="path15" fill="#4DB45E" stroke="none" />
      </g>
      <g id="g17" transform="translate(18.56322 0)">
        <path d="M5.17035 0L0 0C0.258356 1.40482 1.31439 2.53254 2.68045 2.89985L2.68045 2.89985C2.99047 2.98363 3.31665 3.02874 3.65251 3.02874L7.63765 3.02874C7.67318 2.86119 7.68933 2.69042 7.68933 2.51321C7.68933 1.1245 6.56225 0 5.17035 0Z" transform="translate(0.02906507 0)" id="path24" fill="url(#gradient_1)" stroke="none" />
      </g>
    </g>
  </g>
</svg>