<?xml version="1.0" encoding="utf-8"?>
<svg width="35px" height="24px" viewBox="0 0 35 24" version="1.1" xmlns:xlink="http://www.w3.org/1999/xlink" xmlns="http://www.w3.org/2000/svg">
  <desc>Created with Lunacy</desc>
  <g id="mastercard" transform="translate(0.5 0.5)">
    <path d="M1.999 0L32.001 0Q32.0992 0 32.1969 0.00962573Q32.2947 0.0192515 32.391 0.0384102Q32.4873 0.057569 32.5813 0.0860763Q32.6753 0.114584 32.766 0.152165Q32.8567 0.189746 32.9433 0.236039Q33.0299 0.282333 33.1116 0.336892Q33.1932 0.391452 33.2691 0.453752Q33.3451 0.516052 33.4145 0.585494Q33.4839 0.654935 33.5462 0.730848Q33.6085 0.806761 33.6631 0.888415Q33.7177 0.970069 33.764 1.05668Q33.8102 1.14329 33.8478 1.23402Q33.8854 1.32474 33.9139 1.41872Q33.9424 1.5127 33.9616 1.60901Q33.9807 1.70533 33.9904 1.80306Q34 1.9008 34 1.999L34 20.3135Q34 20.4117 33.9904 20.5094Q33.9807 20.6072 33.9616 20.7035Q33.9424 20.7998 33.9139 20.8938Q33.8854 20.9878 33.8478 21.0785Q33.8102 21.1692 33.764 21.2558Q33.7177 21.3424 33.6631 21.4241Q33.6085 21.5057 33.5462 21.5817Q33.4839 21.6576 33.4145 21.727Q33.3451 21.7964 33.2691 21.8587Q33.1932 21.921 33.1116 21.9756Q33.0299 22.0302 32.9433 22.0765Q32.8567 22.1228 32.766 22.1603Q32.6753 22.1979 32.5813 22.2264Q32.4873 22.2549 32.391 22.2741Q32.2947 22.2932 32.1969 22.3029Q32.0992 22.3125 32.001 22.3125L1.999 22.3125Q1.9008 22.3125 1.80306 22.3029Q1.70533 22.2932 1.60901 22.2741Q1.5127 22.2549 1.41872 22.2264Q1.32474 22.1979 1.23402 22.1603Q1.14329 22.1228 1.05668 22.0765Q0.970069 22.0302 0.888415 21.9756Q0.806761 21.921 0.730848 21.8587Q0.654935 21.7964 0.585494 21.727Q0.516052 21.6576 0.453752 21.5817Q0.391452 21.5057 0.336892 21.4241Q0.282333 21.3424 0.236039 21.2558Q0.189746 21.1692 0.152165 21.0785Q0.114584 20.9878 0.0860763 20.8938Q0.057569 20.7998 0.0384102 20.7035Q0.0192515 20.6072 0.00962573 20.5094Q0 20.4117 0 20.3135L0 1.999Q0 1.9008 0.00962573 1.80306Q0.0192515 1.70533 0.0384102 1.60901Q0.057569 1.5127 0.0860763 1.41872Q0.114584 1.32474 0.152165 1.23402Q0.189746 1.14329 0.236039 1.05668Q0.282333 0.970069 0.336892 0.888415Q0.391452 0.806761 0.453752 0.730848Q0.516052 0.654935 0.585494 0.585494Q0.654935 0.516052 0.730848 0.453752Q0.806761 0.391452 0.888415 0.336892Q0.970069 0.282333 1.05668 0.236039Q1.14329 0.189746 1.23402 0.152165Q1.32474 0.114584 1.41872 0.0860763Q1.5127 0.057569 1.60901 0.0384102Q1.70533 0.0192515 1.80306 0.00962573Q1.9008 0 1.999 0Z" id="Rectangle" fill="none" stroke="none" />
    <g id="Mastercard-logo" transform="translate(7 5)">
      <g id="Group" transform="matrix(1 2.145688E-07 2.145688E-07 -1 18.19017 10.23464)">
        <path d="M0.238491 0.506L0.238491 0L0.153962 0L0.153962 0.506L0 0.506L0 0.609L0.392453 0.609L0.392453 0.506L0.238491 0.506ZM1 0.61L1 0L0.915472 0L0.915472 0.461L0.78566 0.063L0.697358 0.063L0.567547 0.46L0.567547 0L0.482264 0L0.482264 0.61L0.603019 0.61L0.741132 0.191L0.88 0.61L1 0.61Z" transform="translate(0.3375 0)" id="Shape" fill="#F79410" fill-rule="evenodd" stroke="none" />
      </g>
      <path d="M5.08969 9.14706L0 9.14706L0 0L5.08969 0L5.08969 9.14706Z" transform="translate(7.153345 1.427906)" id="Path" fill="#FF5F00" stroke="none" />
      <g id="Group" transform="matrix(1 2.145688E-07 2.145688E-07 -1 0.08246052 11.91825)">
        <path d="M7.18983 5.81732C7.18983 7.67285 8.0586 9.32569 9.4115 10.3909C8.42216 11.1698 7.17355 11.6346 5.81659 11.6346C2.60409 11.6346 0 9.03019 0 5.81732C0 2.60446 2.60409 0 5.81659 0C7.17355 0 8.42216 0.464898 9.4115 1.2438C8.0586 2.30895 7.18983 3.9618 7.18983 5.81732" transform="translate(0.2071144 0.1002286)" id="Path" fill="#EB001B" stroke="none" />
      </g>
      <g id="Group" transform="matrix(1 2.145688E-07 2.145688E-07 -1 9.49137 11.91825)">
        <path d="M9.41187 5.81732C9.41187 2.60446 6.80778 0 3.59528 0C2.23831 0 0.989711 0.464898 0 1.2438C1.35327 2.30895 2.22204 3.9618 2.22204 5.81732C2.22204 7.67285 1.35327 9.32569 0 10.3909C0.989711 11.1698 2.23831 11.6346 3.59528 11.6346C6.80778 11.6346 9.41187 9.03019 9.41187 5.81732" transform="translate(0.2041556 0.1002286)" id="Path" fill="#F79E1B" stroke="none" />
      </g>
    </g>
  </g>
</svg>