<?xml version="1.0" encoding="utf-8"?>
<svg width="35px" height="24px" viewBox="0 0 35 24" version="1.1" xmlns:xlink="http://www.w3.org/1999/xlink" xmlns="http://www.w3.org/2000/svg">
  <desc>Created with Lunacy</desc>
  <g id="mastercard" transform="translate(0.5 0.5)">
    <path d="M1.999 0L32.001 0C33.105 0 34 0.894983 34 1.999L34 20.3135C34 21.4175 33.105 22.3125 32.001 22.3125L1.999 22.3125C0.894983 22.3125 0 21.4175 0 20.3135L0 1.999C0 0.894983 0.894983 0 1.999 0Z" id="Rectangle" fill="none" stroke="#E2E2E2" stroke-width="1" />
    <g id="Mastercard-logo" transform="translate(7 5)">
      <g id="Group" transform="matrix(1 2.145688E-07 2.145688E-07 -1 18.19017 10.23464)">
        <path d="M0.238491 0.506L0.238491 0L0.153962 0L0.153962 0.506L0 0.506L0 0.609L0.392453 0.609L0.392453 0.506L0.238491 0.506ZM1 0.61L1 0L0.915472 0L0.915472 0.461L0.78566 0.063L0.697358 0.063L0.567547 0.46L0.567547 0L0.482264 0L0.482264 0.61L0.603019 0.61L0.741132 0.191L0.88 0.61L1 0.61Z" transform="translate(0.3375 0)" id="Shape" fill="#F79410" fill-rule="evenodd" stroke="none" />
      </g>
      <path d="M5.08969 9.14706L0 9.14706L0 0L5.08969 0L5.08969 9.14706Z" transform="translate(7.153345 1.427906)" id="Path" fill="#FF5F00" stroke="none" />
      <g id="Group" transform="matrix(1 2.145688E-07 2.145688E-07 -1 0.08246052 11.91825)">
        <path d="M7.18983 5.81732C7.18983 7.67285 8.0586 9.32569 9.4115 10.3909C8.42216 11.1698 7.17355 11.6346 5.81659 11.6346C2.60409 11.6346 0 9.03019 0 5.81732C0 2.60446 2.60409 0 5.81659 0C7.17355 0 8.42216 0.464898 9.4115 1.2438C8.0586 2.30895 7.18983 3.9618 7.18983 5.81732" transform="translate(0.2071144 0.1002286)" id="Path" fill="#EB001B" stroke="none" />
      </g>
      <g id="Group" transform="matrix(1 2.145688E-07 2.145688E-07 -1 9.49137 11.91825)">
        <path d="M9.41187 5.81732C9.41187 2.60446 6.80778 0 3.59528 0C2.23831 0 0.989711 0.464898 0 1.2438C1.35327 2.30895 2.22204 3.9618 2.22204 5.81732C2.22204 7.67285 1.35327 9.32569 0 10.3909C0.989711 11.1698 2.23831 11.6346 3.59528 11.6346C6.80778 11.6346 9.41187 9.03019 9.41187 5.81732" transform="translate(0.2041556 0.1002286)" id="Path" fill="#F79E1B" stroke="none" />
      </g>
    </g>
  </g>
</svg>