<?xml version="1.0" encoding="utf-8"?>
<svg width="36px" height="24px" viewBox="0 0 36 24" version="1.1" xmlns:xlink="http://www.w3.org/1999/xlink" xmlns="http://www.w3.org/2000/svg">
  <desc>Created with Lunacy</desc>
  <g id="CVC_icon" transform="translate(0.5 0.5)">
    <path d="M1.999 0L32.001 0C33.105 0 34 0.894983 34 1.999L34 20.3135C34 21.4175 33.105 22.3125 32.001 22.3125L1.999 22.3125C0.894983 22.3125 0 21.4175 0 20.3135L0 1.999C0 0.894983 0.894983 0 1.999 0Z" id="Rectangle" fill="#F0F0F0" stroke="none" />
    <path d="M0 0L34 0L34 5L0 5L0 0Z" transform="translate(0 3)" id="Rectangle" fill="#C9C9C9" stroke="none" />
    <path d="M0 0L28 0L28 5L0 5L0 0Z" transform="translate(3 13)" id="Rectangle" fill="#FFFFFF" stroke="none" />
    <path d="M6 12C9.31371 12 12 9.31371 12 6C12 2.68629 9.31371 0 6 0C2.68629 0 0 2.68629 0 6C0 9.31371 2.68629 12 6 12Z" transform="translate(23 6)" id="Oval" fill="#000000" stroke="none" />
    <g id="123" fill="#FFFFFF" transform="translate(24 8)">
      <path d="M6.3625 6.13281L3.52949 6.13281L3.52949 5.64104L4.91816 4.12891Q5.25801 3.75684 5.38691 3.51807Q5.51582 3.2793 5.51582 3.05078Q5.51582 2.76367 5.34883 2.57031Q5.18184 2.37695 4.89766 2.37695Q4.52266 2.37695 4.34102 2.58789Q4.15938 2.79883 4.15938 3.16797L3.4709 3.16797L3.46504 3.15039Q3.45039 2.58203 3.83711 2.19385Q4.22383 1.80566 4.89766 1.80566Q5.51289 1.80566 5.87031 2.14551Q6.22773 2.48535 6.22773 3.0332Q6.22773 3.39941 6.02119 3.7334Q5.81465 4.06738 5.38105 4.54492L4.43184 5.54399L4.44063 5.56152L6.3625 5.56152L6.3625 6.13281ZM8.05801 3.67773L7.56289 3.67773L7.56289 4.2373L8.05801 4.2373Q8.42422 4.2373 8.59854 4.40833Q8.77285 4.57935 8.77285 4.93896Q8.77285 5.26636 8.58242 5.4447Q8.39199 5.62305 8.06094 5.62305Q7.74453 5.62305 7.5541 5.44807Q7.36367 5.27309 7.36367 4.99023L6.67812 4.99023L6.67227 5.00781Q6.65469 5.56445 7.05752 5.87939Q7.46035 6.19434 8.05215 6.19434Q8.6791 6.19434 9.08193 5.85889Q9.48477 5.52344 9.48477 4.9375Q9.48477 4.60059 9.31338 4.33691Q9.14199 4.07324 8.77871 3.94434Q9.08633 3.80371 9.25332 3.54883Q9.42031 3.29395 9.42031 3.02148Q9.42031 2.43848 9.04824 2.12207Q8.67617 1.80566 8.05215 1.80566Q7.46035 1.80566 7.07803 2.13818Q6.6957 2.4707 6.71328 2.95996L6.71914 2.97754L7.40469 2.97754Q7.40469 2.70801 7.58779 2.54248Q7.7709 2.37695 8.06094 2.37695Q8.38027 2.37695 8.54434 2.54541Q8.7084 2.71387 8.7084 3.02148Q8.7084 3.33496 8.55606 3.50635Q8.40371 3.67773 8.05801 3.67773ZM2.10352 6.13281L1.3916 6.13281L1.3916 2.54395L0.524414 2.54395L0.524414 2.01953L2.10352 1.86719L2.10352 6.13281Z" />
    </g>
  </g>
</svg>