<svg width="92" height="16" viewBox="0 0 92 16" xmlns="http://www.w3.org/2000/svg"><title>acc/global/mp_mark_hor_blk</title><desc>Created with Sketch.</desc><g fill="none"><path d="M91.719 5.79c-.556-.367-1.324-.556-2.17-.556-1.346 0-2.215.645-2.215 1.703 0 .868.646 1.402 1.836 1.569l.545.078c.634.089.935.256.935.556 0 .412-.423.646-1.213.646-.801 0-1.38-.256-1.77-.556l-.546.901c.634.468 1.436.69 2.304.69 1.536 0 2.426-.723 2.426-1.736 0-.935-.701-1.425-1.858-1.592l-.545-.078c-.501-.067-.902-.167-.902-.523 0-.39.378-.623 1.013-.623.679 0 1.336.256 1.658.456l.501-.935zm-5.553 0c-.556-.367-1.324-.556-2.17-.556-1.347 0-2.215.645-2.215 1.703 0 .868.645 1.402 1.836 1.569l.545.078c.634.089.935.256.935.556 0 .412-.423.646-1.213.646-.801 0-1.38-.256-1.77-.556l-.545.901c.634.468 1.436.69 2.304.69 1.536 0 2.426-.723 2.426-1.736 0-.935-.701-1.425-1.858-1.592l-.545-.078c-.501-.067-.901-.167-.901-.523 0-.39.378-.623 1.013-.623.679 0 1.336.256 1.658.456l.501-.935zm-13.255 2.215c0 .935-.612 1.703-1.614 1.703-.957 0-1.602-.734-1.602-1.703 0-.968.645-1.703 1.602-1.703 1.002 0 1.614.768 1.614 1.703zm-4.307 0v4.585h1.157v-2.571c.367.478.924.779 1.681.779 1.491 0 2.66-1.169 2.66-2.794s-1.169-2.793-2.66-2.793c-.757 0-1.313.3-1.681.779v-.645h-1.157v2.66zm7.534.011c0-.935.612-1.703 1.614-1.703.957 0 1.603.734 1.603 1.703 0 .968-.646 1.703-1.603 1.703-1.002 0-1.614-.768-1.614-1.703zm4.307 0v-2.66h-1.158v.646c-.367-.479-.924-.779-1.68-.779-1.491 0-2.66 1.168-2.66 2.793 0 1.625 1.168 2.794 2.66 2.794.757 0 1.313-.3 1.68-.779v.646h1.158v-2.66zm-38.585 0c0-.935.612-1.703 1.614-1.703.957 0 1.603.734 1.603 1.703 0 .968-.645 1.703-1.603 1.703-1.002 0-1.614-.768-1.614-1.703zm4.307 0v-2.66h-1.157v.646c-.367-.479-.924-.779-1.681-.779-1.491 0-2.66 1.168-2.66 2.793 0 1.625 1.169 2.794 2.66 2.794.757 0 1.313-.3 1.681-.779v.646h1.157v-2.66zm14.357-1.758c.746 0 1.224.468 1.347 1.291h-2.76c.122-.768.59-1.291 1.413-1.291zm.022-1.035c-1.558 0-2.649 1.135-2.649 2.793 0 1.692 1.135 2.794 2.727 2.794.801 0 1.536-.2 2.181-.746l-.568-.857c-.445.356-1.013.556-1.547.556-.746 0-1.425-.345-1.592-1.302h3.951l.022-.445c-.011-1.658-1.035-2.793-2.526-2.793zm-8.658.556c-.556-.367-1.324-.556-2.17-.556-1.347 0-2.215.646-2.215 1.703 0 .868.646 1.402 1.836 1.569l.545.078c.634.089.935.256.935.556 0 .412-.423.646-1.213.646-.801 0-1.38-.256-1.77-.557l-.545.902c.634.467 1.436.69 2.304.69 1.536 0 2.426-.724 2.426-1.736 0-.935-.701-1.425-1.859-1.592l-.545-.078c-.501-.067-.902-.167-.902-.523 0-.39.378-.623 1.013-.623.679 0 1.336.256 1.658.456l.501-.935zm14.924-.556c-.668 0-1.102.312-1.402.779v-.646h-1.146v5.32h1.158v-2.983c0-.879.378-1.369 1.135-1.369.234 0 .478.033.723.134l.356-1.091c-.256-.1-.59-.145-.824-.145zm-9.872.134h-1.892v-1.614h-1.169v1.614h-1.079v1.057h1.079v2.426c0 1.235.479 1.97 1.848 1.97.501 0 1.08-.156 1.447-.412l-.334-.991c-.345.2-.724.3-1.024.3-.579 0-.768-.356-.768-.89v-2.404h1.892v-1.057zm-17.294 5.32v-3.339c0-1.258-.801-2.103-2.092-2.114-.679-.011-1.38.2-1.87.946-.367-.59-.946-.946-1.758-.946-.568 0-1.124.167-1.558.79v-.657h-1.157v5.32h1.168v-2.949c0-.924.512-1.413 1.302-1.413.768 0 1.157.501 1.157 1.402v2.96h1.169v-2.949c0-.924.534-1.413 1.302-1.413.79 0 1.169.501 1.169 1.402v2.96h1.169z" fill="#000"/><path fill="#FF5F00" d="M9.443 14.29h7v-12.579h-7z"/><path d="M9.888 8c0-2.552 1.195-4.825 3.056-6.29-1.361-1.071-3.078-1.71-4.944-1.71-4.418 0-7.999 3.582-7.999 8s3.581 8 7.999 8c1.866 0 3.583-.639 4.944-1.71-1.861-1.465-3.056-3.738-3.056-6.29" fill="#EC001B"/><path d="M25.887 8c0 4.418-3.582 8-7.999 8-1.866 0-3.583-.639-4.944-1.71 1.861-1.465 3.056-3.738 3.056-6.29s-1.195-4.825-3.056-6.29c1.361-1.071 3.078-1.71 4.944-1.71 4.418 0 7.999 3.582 7.999 8" fill="#F89E1B"/></g></svg>