<?xml version="1.0" encoding="utf-8"?>
<svg width="60px" height="25px" viewBox="0 0 60 25" version="1.1" xmlns:xlink="http://www.w3.org/1999/xlink" xmlns="http://www.w3.org/2000/svg">
  <desc>Created with Lunacy</desc>
  <g id="Apple_Pay_logo">
    <path d="M10.9631 3.19833C10.2599 4.03627 9.1348 4.69717 8.00967 4.60276C7.86903 3.46977 8.41987 2.26597 9.06448 1.52245C9.76768 0.660909 10.9983 0.0472078 11.9945 0C12.1117 1.18019 11.6546 2.33679 10.9631 3.19833M11.9828 4.827C10.3537 4.73258 8.959 5.75935 8.18547 5.75935C7.40022 5.75935 6.21649 4.8742 4.92728 4.89781C3.25131 4.92141 1.69254 5.87737 0.836972 7.39982C-0.921041 10.4447 0.379889 14.9531 2.0793 17.4315C2.91143 18.6589 3.90764 20.0043 5.22029 19.9571C6.46262 19.9099 6.95486 19.1428 8.45503 19.1428C9.96692 19.1428 10.4006 19.9571 11.7132 19.9335C13.0727 19.9099 13.9283 18.7061 14.7604 17.4787C15.7098 16.0861 16.0965 14.7288 16.12 14.658C16.0965 14.6344 13.4947 13.6312 13.4712 10.61C13.4478 8.08433 15.5222 6.88054 15.616 6.80972C14.444 5.06304 12.6157 4.8742 11.9828 4.827M21.394 1.40443L21.394 19.8037L24.2303 19.8037L24.2303 13.5132L28.1565 13.5132C31.7429 13.5132 34.2627 11.0348 34.2627 7.44703C34.2627 3.85924 31.7897 1.40443 28.2503 1.40443L21.394 1.40443ZM24.2303 3.81203L27.5002 3.81203C29.9614 3.81203 31.3678 5.13385 31.3678 7.45883C31.3678 9.78381 29.9614 11.1174 27.4885 11.1174L24.2303 11.1174L24.2303 3.81203L24.2303 3.81203ZM39.443 19.9453C41.2244 19.9453 42.8769 19.0365 43.627 17.5967L43.6856 17.5967L43.6856 19.8037L46.3109 19.8037L46.3109 10.6454C46.3109 7.98992 44.2013 6.27864 40.9548 6.27864C37.9428 6.27864 35.716 8.01352 35.6339 10.3975L38.1889 10.3975C38.3999 9.26453 39.443 8.52101 40.8728 8.52101C42.6074 8.52101 43.5802 9.33534 43.5802 10.8342L43.5802 11.8492L40.0407 12.0616C36.7473 12.2622 34.9659 13.6194 34.9659 15.9798C34.9659 18.3638 36.8059 19.9453 39.443 19.9453ZM40.2048 17.7619C38.6929 17.7619 37.7318 17.0302 37.7318 15.909C37.7318 14.7524 38.6577 14.0797 40.4274 13.9735L43.5802 13.7729L43.5802 14.8114C43.5802 16.5345 42.1269 17.7619 40.2048 17.7619ZM49.8152 24.8077C52.5812 24.8077 53.8821 23.7455 55.019 20.5236L60 6.45567L57.1169 6.45567L53.7766 17.3253L53.718 17.3253L50.3778 6.45567L47.4126 6.45567L52.2179 19.8509L51.96 20.6652C51.5264 22.046 50.8232 22.5771 49.5691 22.5771C49.3464 22.5771 48.9128 22.5535 48.737 22.5299L48.737 24.7369C48.9011 24.7841 49.6043 24.8077 49.8152 24.8077Z" id="XMLID_34_" fill="#FFFFFF" stroke="none" />
  </g>
</svg>