<?xml version="1.0" encoding="utf-8"?>
<svg width="60px" height="24px" viewBox="0 0 60 24" version="1.1" xmlns:xlink="http://www.w3.org/1999/xlink" xmlns="http://www.w3.org/2000/svg">
  <desc>Created with Lunacy</desc>
  <g id="Google_Pay_(GPay)_Logo">
    <path d="M2.20969 17.2484L2.20969 10.2631L5.86048 10.2631C7.36563 10.264 8.63059 9.77456 9.65538 8.79474C10.691 7.86483 11.27 6.52781 11.2406 5.13419C11.2611 3.74831 10.6831 2.42119 9.65538 1.49428C8.63959 0.509097 7.27341 -0.0284331 5.86048 0.0011603L0 0.0011603L0 17.2484L2.20969 17.2484ZM2.20969 8.1452L2.20969 2.12318L5.91538 2.12318C6.74129 2.0999 7.53746 2.43315 8.10173 3.03832C8.66947 3.59176 8.98978 4.35194 8.98978 5.14588C8.98978 5.93983 8.66947 6.70001 8.10173 7.25345C7.53053 7.84589 6.73683 8.16961 5.91538 8.1452L2.20969 8.1452Z" transform="translate(26.09033 1.375637)" id="Shape" fill="#FFFFFF" fill-rule="evenodd" stroke="none" />
    <path d="M9.00817 1.31284Q7.5904 0 5.14053 0Q1.99344 2.98023e-08 0.387642 2.31193L2.33381 3.54083Q3.41258 1.97477 5.26405 1.97477C6.05101 1.96553 6.81254 2.25396 7.39688 2.78257C7.97951 3.26554 8.31465 3.98561 8.30958 4.74358L8.30958 5.25Q7.03592 4.52752 5.06779 4.52752Q2.76203 4.53028 1.38132 5.61193Q0.000603158 6.69358 0.000603158 8.52523C-0.0194532 9.63712 0.461571 10.6988 1.30995 11.4151Q2.61929 12.5711 4.56409 12.5711Q6.8424 12.5711 8.21488 10.5482L8.31095 10.5482L8.31095 12.1858L10.4246 12.1858L10.4246 4.91284C10.4255 3.38807 9.95335 2.18807 9.00817 1.31284ZM3.01456 10.0183C2.55168 9.6838 2.27865 9.14552 2.28166 8.57339C2.28166 7.93073 2.58223 7.39541 3.18749 6.95505Q4.08647 6.30413 5.43287 6.30413Q7.28159 6.30413 8.31507 7.12982Q8.31507 8.52523 7.21709 9.56147C6.5578 10.2226 5.66399 10.5948 4.73153 10.5963C4.10985 10.608 3.50327 10.4038 3.01456 10.0183Z" transform="translate(37.28229 6.438263)" id="Shape" fill="#FFFFFF" fill-rule="evenodd" stroke="none" />
    <path d="M11.7731 0L4.39467 17.0023L2.11361 17.0023L4.85171 11.0532L0 0L2.40184 0L5.90851 8.47706L5.95655 8.47706L9.36716 9.77811e-16L11.7731 0Z" transform="translate(48.06644 6.823586)" id="Path" fill="#FFFFFF" stroke="none" />
    <path d="M9.48931 2.01468C9.49014 1.33948 9.4332 0.665444 9.31912 0L0 0L0 3.81605L5.33756 3.81605C5.11686 5.04764 4.4039 6.13535 3.36394 6.82706L3.36394 9.30413L6.54946 9.30413C8.41466 7.57982 9.48931 5.02982 9.48931 2.01468Z" transform="translate(9.881378 8.119919)" id="Path" fill="#4285F4" stroke="none" />
    <path d="M8.82914 8.01193C11.4959 8.01193 13.7412 7.13394 15.3786 5.62018L12.1931 3.14312C11.3065 3.74587 10.1646 4.08991 8.82914 4.08991C6.25163 4.08991 4.0639 2.34771 3.28159 0L0 0L0 2.55275C1.67738 5.89948 5.09357 8.01176 8.82914 8.01193Z" transform="translate(1.052246 11.80524)" id="Path" fill="#34A853" stroke="none" />
    <path d="M4.33383 6.34541C3.92025 5.1152 3.92025 3.78297 4.33383 2.55275L4.33383 0L1.05224 0C-0.350747 2.79926 -0.350747 6.09891 1.05224 8.89816L4.33383 6.34541Z" transform="translate(0 5.459824)" id="Path" fill="#FBBC04" stroke="none" />
    <path d="M8.82915 3.92267C10.2384 3.89958 11.6001 4.43346 12.6199 5.40891L12.6199 5.40891L15.4404 2.58093C13.6519 0.896626 11.2826 -0.0280826 8.82915 0.000650074C5.09357 0.000820782 1.67738 2.11309 0 5.45982L3.28159 8.01258C4.06391 5.66487 6.25163 3.92267 8.82915 3.92267Z" transform="translate(1.052246 0)" id="Path" fill="#EA4335" stroke="none" />
  </g>
</svg>