<svg id="Layer_1" data-name="Layer 1" xmlns="http://www.w3.org/2000/svg" viewBox="0 0 180.2 81.77"><title>pay_samsung</title><path d="M246.46,442V400.51h6.69v3.05a8.12,8.12,0,0,1,4.13-3,14,14,0,0,1,4.38-.71,14.77,14.77,0,0,1,10.86,4.58,16.14,16.14,0,0,1,3.36,17.24,15.37,15.37,0,0,1-8.16,8.52,13.86,13.86,0,0,1-5.76,1.17,14.14,14.14,0,0,1-4.68-.77,8.42,8.42,0,0,1-4.24-2.93V442h-6.58m15-36.31a8.41,8.41,0,0,0-6.31,2.55,10.23,10.23,0,0,0-2.48,7.17,10.8,10.8,0,0,0,2.41,7.43,8.26,8.26,0,0,0,6.43,2.52,8.51,8.51,0,0,0,6.19-2.63,9.82,9.82,0,0,0,2.66-7,10.59,10.59,0,0,0-2.62-7.4,8.48,8.48,0,0,0-6.29-2.62" transform="translate(-205.3 -360.26)" style="fill:#164193"/><polyline points="117.62 81.78 123.27 68.68 110.32 40.25 117.37 40.25 126.57 61.59 135.06 40.25 142.15 40.25 124.55 81.78 117.62 81.78" style="fill:#164193"/><path d="M305,430.79v-3.14a8.41,8.41,0,0,1-4.24,2.93,14.22,14.22,0,0,1-4.68.77,13.91,13.91,0,0,1-5.77-1.17,14.89,14.89,0,0,1-4.94-3.47,14.74,14.74,0,0,1-3.21-5,15.89,15.89,0,0,1-1.18-6,15.7,15.7,0,0,1,4.54-11.27,14.79,14.79,0,0,1,10.87-4.58,13.82,13.82,0,0,1,4.37.71,8.08,8.08,0,0,1,4.14,3v-3.05h6.68v30.28H305m-14.7-22.44a10.58,10.58,0,0,0-2.61,7.4,9.82,9.82,0,0,0,2.66,7,8.5,8.5,0,0,0,6.19,2.63,8.23,8.23,0,0,0,6.42-2.52c1.75-1.86,2.41-4.61,2.41-7.43a10.25,10.25,0,0,0-2.46-7.17,8.39,8.39,0,0,0-6.31-2.55,8.49,8.49,0,0,0-6.3,2.62" transform="translate(-205.3 -360.26)" style="fill:#164193"/><polyline points="149.16 21.04 148.82 0.82 155.2 0.82 155.2 26.33 146.02 26.33 139.67 5.39 139.51 5.39 139.87 26.33 133.54 26.33 133.54 0.82 143.09 0.82 149.02 21.04 149.16 21.04" style="fill:#164193"/><polyline points="33.27 3.2 29.75 26.56 22.8 26.56 27.56 0.82 39.03 0.82 43.79 26.56 36.86 26.56 33.42 3.2 33.27 3.2" style="fill:#164193"/><polyline points="63.3 20.52 66.49 0.82 76.98 0.82 77.56 26.56 71.11 26.56 70.93 3.42 70.8 3.42 66.5 26.56 59.98 26.56 55.66 3.42 55.51 3.42 55.35 26.56 48.91 26.56 49.5 0.82 60 0.82 63.17 20.52 63.3 20.52" style="fill:#164193"/><path d="M322.6,383a2.32,2.32,0,0,0,2.48-1.85,5.83,5.83,0,0,0,.05-1v-19h6.54v18.46c0,0.48-.05,1.44-0.07,1.7-0.44,4.81-4.26,6.36-9,6.36s-8.53-1.54-9-6.36a16.71,16.71,0,0,1-.06-1.7V361.08h6.52v19a4.91,4.91,0,0,0,.05,1A2.31,2.31,0,0,0,322.6,383" transform="translate(-205.3 -360.26)" style="fill:#164193"/><path d="M217.25,379.56a3.43,3.43,0,0,1,.05,1.91,2.23,2.23,0,0,1-2.52,1.74,2.29,2.29,0,0,1-2.57-2.34l0-2.5H205.3v2c0,5.75,4.51,7.48,9.34,7.48s8.51-1.58,9.11-5.87a12.72,12.72,0,0,0,0-4.23c-1.08-5.41-10.87-7-11.6-10a3.11,3.11,0,0,1,0-1.35,2.12,2.12,0,0,1,2.35-1.74,2.2,2.2,0,0,1,2.41,2.32v1.61h6.43v-1.81c0-5.62-5-6.49-8.7-6.49-4.57,0-8.32,1.52-9,5.73a9.43,9.43,0,0,0,.05,3.46c1.13,5.28,10.28,6.79,11.61,10.12" transform="translate(-205.3 -360.26)" style="fill:#164193"/><path d="M301,379.53a3.39,3.39,0,0,1,.05,1.88,2.19,2.19,0,0,1-2.48,1.7A2.28,2.28,0,0,1,296,380.8v-2.48h-6.85v2c0,5.7,4.48,7.39,9.28,7.39,4.59,0,8.39-1.56,9-5.82a12.34,12.34,0,0,0,0-4.2c-1.07-5.33-10.75-6.91-11.46-9.91a3.42,3.42,0,0,1,0-1.32,2.09,2.09,0,0,1,2.33-1.71,2.16,2.16,0,0,1,2.38,2.28v1.59H307v-1.79c0-5.55-5-6.42-8.58-6.42-4.54,0-8.26,1.48-8.91,5.66a8.14,8.14,0,0,0,0,3.43c1.11,5.23,10.16,6.72,11.48,10" transform="translate(-205.3 -360.26)" style="fill:#164193"/><path d="M376.32,382.7a2.4,2.4,0,0,0,2.63-1.86,7,7,0,0,0,.06-1v-3.73h-2.63v-3.78h9.12v6.92c0,0.48,0,.84-0.09,1.7-0.43,4.66-4.5,6.36-9.07,6.36s-8.61-1.7-9-6.36a12,12,0,0,1-.1-1.7V368.44a13.79,13.79,0,0,1,.12-1.69c0.56-4.84,4.45-6.37,9-6.37s8.59,1.51,9,6.37a11.58,11.58,0,0,1,0,1.69v0.84H379v-1.44a5.36,5.36,0,0,0-.09-1,2.35,2.35,0,0,0-2.58-1.86,2.4,2.4,0,0,0-2.55,1.86,5.89,5.89,0,0,0-.1,1.23v11.77c0,0.33,0,.69,0,1a2.41,2.41,0,0,0,2.65,1.86" transform="translate(-205.3 -360.26)" style="fill:#164193"/></svg>