<?xml version="1.0" encoding="utf-8"?>
<svg width="97px" height="53px" viewBox="0 0 97 53" version="1.1" xmlns:xlink="http://www.w3.org/1999/xlink" xmlns="http://www.w3.org/2000/svg">
  <desc>Created with Lunacy</desc>
  <g id="pay_google" transform="translate(0.5 0.5)">
    <g id="Google_Pay_(GPay)_Logo" transform="translate(18 14)">
      <path d="M2.2156 17.2484L2.2156 10.2631L5.87615 10.2631C7.38532 10.264 8.65367 9.77456 9.68119 8.79474C10.7196 7.86483 11.3002 6.52781 11.2706 5.13419C11.2912 3.74831 10.7117 2.42119 9.68119 1.49428C8.66269 0.509097 7.29285 -0.0284331 5.87615 0.0011603L0 0.0011603L0 17.2484L2.2156 17.2484ZM2.2156 8.1452L2.2156 2.12318L5.93119 2.12318C6.75932 2.0999 7.55761 2.43315 8.12339 3.03832C8.69265 3.59176 9.01382 4.35194 9.01382 5.14588C9.01382 5.93983 8.69265 6.70001 8.12339 7.25345C7.55067 7.84589 6.75484 8.16961 5.93119 8.1452L2.2156 8.1452Z" transform="translate(26.16055 1.512601)" id="Shape" fill="#5F6368" fill-rule="evenodd" stroke="none" />
      <path d="M9.03226 1.31284Q7.6107 0 5.15427 0Q1.99877 2.98023e-08 0.388678 2.31193L2.34005 3.54083Q3.42171 1.97477 5.27813 1.97477C6.06719 1.96553 6.83076 2.25396 7.41666 2.78257C8.00085 3.26554 8.33688 3.98561 8.3318 4.74358L8.3318 5.25Q7.05473 4.52752 5.08134 4.52752Q2.76941 4.53028 1.38501 5.61193Q0.000604771 6.69358 0.000604771 8.52523C-0.0195052 9.63712 0.462805 10.6988 1.31345 11.4151Q2.62629 12.5711 4.57629 12.5711Q6.8607 12.5711 8.23684 10.5482L8.33317 10.5482L8.33317 12.1858L10.4524 12.1858L10.4524 4.91284C10.4534 3.38807 9.97996 2.18807 9.03226 1.31284ZM3.02262 10.0183C2.5585 9.6838 2.28475 9.14552 2.28776 8.57339C2.28776 7.93073 2.58914 7.39541 3.19602 6.95505Q4.09739 6.30413 5.44739 6.30413Q7.30106 6.30413 8.3373 7.12982Q8.3373 8.52523 7.23639 9.56147C6.57533 10.2226 5.67913 10.5948 4.74418 10.5963C4.12084 10.608 3.51264 10.4038 3.02262 10.0183Z" transform="translate(37.38242 6.575229)" id="Shape" fill="#5F6368" fill-rule="evenodd" stroke="none" />
      <path d="M11.8046 0L4.40642 17.0023L2.11927 17.0023L4.86468 11.0532L0 0L2.40826 0L5.92431 8.47706L5.97248 8.47706L9.3922 9.77811e-16L11.8046 0Z" transform="translate(48.19541 6.96055)" id="Path" fill="#5F6368" stroke="none" />
      <path d="M9.51468 2.01468C9.51551 1.33948 9.45842 0.665444 9.34404 0L0 0L0 3.81605L5.35183 3.81605C5.13054 5.04764 4.41567 6.13535 3.37294 6.82706L3.37294 9.30413L6.56697 9.30413C8.43715 7.57982 9.51468 5.02982 9.51468 2.01468Z" transform="translate(9.908257 8.256881)" id="Path" fill="#4285F4" stroke="none" />
      <path d="M8.85275 8.01193C11.5266 8.01193 13.778 7.13394 15.4197 5.62018L12.2257 3.14312C11.3367 3.74587 10.1917 4.08991 8.85275 4.08991C6.26835 4.08991 4.07477 2.34771 3.29037 0L0 0L0 2.55275C1.68186 5.89948 5.10719 8.01176 8.85275 8.01193Z" transform="translate(1.055505 11.9422)" id="Path" fill="#34A853" stroke="none" />
      <path d="M4.34542 6.34541C3.93073 5.1152 3.93073 3.78297 4.34542 2.55275L4.34542 0L1.05505 0C-0.351684 2.79926 -0.351684 6.09891 1.05505 8.89816L4.34542 6.34541Z" transform="translate(0.0004515734 5.596789)" id="Path" fill="#FBBC04" stroke="none" />
      <path d="M8.85275 3.92267C10.2658 3.89958 11.6311 4.43346 12.6537 5.40891L12.6537 5.40891L15.4817 2.58093C13.6884 0.896626 11.3128 -0.0280826 8.85275 0.000650074C5.10719 0.000820782 1.68186 2.11309 0 5.45982L3.29037 8.01258C4.07477 5.66487 6.26835 3.92267 8.85275 3.92267Z" transform="translate(1.055505 0.1369646)" id="Path" fill="#EA4335" stroke="none" />
    </g>
  </g>
</svg>